<svg id="e38a6eee-91c8-4686-886c-71639d1ec399" data-name="Layer 1" xmlns="http://www.w3.org/2000/svg" width="85" height="86" viewBox="0 0 85 86"><rect width="85" height="86"/><polygon points="26.09 34.08 26.09 47.19 38.82 47.19 47.71 37.8 35.48 37.8 35.48 25.5 26.09 34.08" fill="#fff"/><polygon points="25.75 14.98 59.25 14.98 59.25 48.06 48.98 37.79 48.98 24.48 35.47 24.48 25.75 14.98" fill="#fff"/><path d="M31.92,70.52H27.18L25.73,67H17.82l-1.32,3.5H11.83L19,52.84h5.11ZM21.58,57.06,19,63.93h5.44Z" transform="translate(0 0.5)" fill="#fff"/><polygon points="48.96 53.34 52.79 53.34 52.79 71.02 48.38 71.02 48.38 59.97 43.61 65.52 42.94 65.52 38.17 59.97 38.17 71.02 33.76 71.02 33.76 53.34 37.6 53.34 43.28 59.9 48.96 53.34" fill="#fff"/><path d="M63.39,52.84c6.46,0,9.78,4,9.78,8.86,0,5.09-3.22,8.82-10.27,8.82H55.59V52.84ZM60,67.28h2.88c4.43,0,5.75-3,5.75-5.6,0-3-1.63-5.6-5.81-5.6H60Z" transform="translate(0 0.5)" fill="#fff"/></svg>