<svg id="ad107970-53f0-47f9-85ec-5383d05db6c1" data-name="Layer 1" xmlns="http://www.w3.org/2000/svg" xmlns:xlink="http://www.w3.org/1999/xlink" width="85" height="85" viewBox="0 0 85 85"><defs><linearGradient id="a8c24b6d-5d62-44c9-a18f-e23a77f4f8dd" x1="62.31" y1="67.99" x2="4.55" y2="-0.85" gradientUnits="userSpaceOnUse"><stop offset="0" stop-color="#1a67aa"/><stop offset="0.53" stop-color="#2a88c9"/><stop offset="1" stop-color="#1088c9"/></linearGradient></defs><rect width="85" height="85" fill="#24a6df"/><rect width="65.4" height="65.4" fill="url(#a8c24b6d-5d62-44c9-a18f-e23a77f4f8dd)"/><rect x="65.4" y="65.4" width="19.6" height="19.6" fill="#0a80bf"/><path d="M10.71,20.5V11.86H8.44V20.5Zm15.09.08V18.47a4.44,4.44,0,0,1-.82-.06.83.83,0,0,1-.78-.75,6,6,0,0,1-.05-.83v-3H25.8V11.86H24.15V8.49H21.87v8.35a7.54,7.54,0,0,0,.18,1.79,2.41,2.41,0,0,0,.61,1.14,2.32,2.32,0,0,0,1.11.62,6.52,6.52,0,0,0,1.73.19Zm13-.08V7.82H36.56V20.5ZM19.68,12.7a3.44,3.44,0,0,0-2.65-1,3.33,3.33,0,0,0-1.49.33,3.17,3.17,0,0,0-1.13.92l-.13.17V11.86H12V20.5H14.3V16.06a2.59,2.59,0,0,1,.6-1.79,2,2,0,0,1,1.44-.62,1.86,1.86,0,0,1,1.49.6,2.5,2.5,0,0,1,.5,1.65h0v0h0v4.57h2.29v-4.9A4.09,4.09,0,0,0,19.68,12.7Zm15.7,3.46a4.85,4.85,0,0,0-.32-1.75A4.51,4.51,0,0,0,34.14,13a4.16,4.16,0,0,0-1.4-1,4.67,4.67,0,0,0-1.81-.34,4.46,4.46,0,0,0-1.76.35,4.58,4.58,0,0,0-1.43,1,4.53,4.53,0,0,0-.95,1.43,4.32,4.32,0,0,0-.35,1.76,4.71,4.71,0,0,0,.33,1.76,4.43,4.43,0,0,0,.93,1.42,4.28,4.28,0,0,0,1.44,1,4.73,4.73,0,0,0,1.85.36A4.92,4.92,0,0,0,34.84,19L33.2,17.73a3,3,0,0,1-2.19,1,2.56,2.56,0,0,1-1.57-.45,2.23,2.23,0,0,1-.82-1.2l0-.08h6.78v-.81Zm-6.77-.79a2.11,2.11,0,0,1,2.29-1.74,2.11,2.11,0,0,1,2.3,1.73Z" transform="translate(0 0)" fill="#fff"/><path d="M41.43,19.37a.88.88,0,0,0-.44-.44.72.72,0,0,0-.33-.07.71.71,0,0,0-.32.07.88.88,0,0,0-.44.44.71.71,0,0,0-.07.32.72.72,0,0,0,.07.33.88.88,0,0,0,.44.44.71.71,0,0,0,.32.07.72.72,0,0,0,.33-.07.88.88,0,0,0,.44-.44.72.72,0,0,0,.07-.33A.71.71,0,0,0,41.43,19.37Zm-.13.6a.86.86,0,0,1-.15.22.64.64,0,0,1-.22.14.63.63,0,0,1-.27.06.67.67,0,0,1-.28-.06.7.7,0,0,1-.42-.64.66.66,0,0,1,.06-.27.64.64,0,0,1,.14-.22.86.86,0,0,1,.22-.15.82.82,0,0,1,.28-.05.69.69,0,0,1,.64.42.81.81,0,0,1,.05.27A.64.64,0,0,1,41.3,20Zm-.48-.21a.26.26,0,0,0,.16-.07.29.29,0,0,0,.07-.19.28.28,0,0,0-.09-.22.36.36,0,0,0-.25-.07h-.38v1h.18v-.39h.13l.24.39h.19Zm-.1-.13h-.21v-.28h.21l.08,0a.11.11,0,0,1,.05,0,.17.17,0,0,1,0,.16l-.05,0Z" transform="translate(0 0)" fill="#fff"/><path d="M46.68,37A3.18,3.18,0,0,0,43.9,38.4a7.23,7.23,0,0,0-1,4.1v.85a7.4,7.4,0,0,0,1,4.12,3.42,3.42,0,0,0,5.58.06,7.35,7.35,0,0,0,1-4.12v-.85a7.34,7.34,0,0,0-1-4.15A3.22,3.22,0,0,0,46.68,37Z" transform="translate(0 0)" fill="none"/><polygon points="14.54 45.16 18.88 45.16 16.7 38.66 14.54 45.16" fill="none"/><path d="M15,34.28,8.58,51.63h3.8l1.19-3.57h6.27l1.21,3.57h3.8l-6.5-17.35Zm-.5,10.88,2.16-6.5,2.18,6.5Z" transform="translate(0 0)" fill="#fff"/><polygon points="23.97 37.17 29.21 37.17 29.21 51.63 32.79 51.63 32.79 37.17 38.11 37.17 38.11 34.28 23.97 34.28 23.97 37.17" fill="#fff"/><path d="M50.53,35.08a7.66,7.66,0,0,0-7.71,0,7,7,0,0,0-2.61,3,10.4,10.4,0,0,0-.92,4.52v.85a10.06,10.06,0,0,0,.94,4.43,6.82,6.82,0,0,0,2.62,3,7.65,7.65,0,0,0,7.72,0,6.81,6.81,0,0,0,2.59-3,10.34,10.34,0,0,0,.91-4.49v-.78a10.48,10.48,0,0,0-.92-4.5A6.91,6.91,0,0,0,50.53,35.08Zm-.09,8.33a7.35,7.35,0,0,1-1,4.12,3.42,3.42,0,0,1-5.58-.06,7.4,7.4,0,0,1-1-4.12V42.5a7.23,7.23,0,0,1,1-4.1A3.18,3.18,0,0,1,46.68,37a3.22,3.22,0,0,1,2.79,1.42,7.34,7.34,0,0,1,1,4.15Z" transform="translate(0 0)" fill="#fff"/><polygon points="70.23 34.28 65.8 46.87 61.34 34.28 56.67 34.28 56.67 51.63 60.24 51.63 60.24 46.89 59.88 38.71 64.56 51.63 67.02 51.63 71.7 38.7 71.34 46.89 71.34 51.63 74.93 51.63 74.93 34.28 70.23 34.28" fill="#fff"/></svg>