<svg id="b1dea8bb-bd78-4855-a14f-9098e0f64e95" data-name="b2778726-d09c-49c1-9db0-8b9b88f2cfef" xmlns="http://www.w3.org/2000/svg" xmlns:xlink="http://www.w3.org/1999/xlink" width="85" height="85" viewBox="0 0 85 85"><defs><clipPath id="bda5c9da-87c9-4e56-865b-d87439727550"><rect width="65.4" height="65.4" fill="none"/></clipPath></defs><rect width="85" height="85" fill="#1a4685"/><g clip-path="url(#bda5c9da-87c9-4e56-865b-d87439727550)"><path d="M65.4,65.4Z" fill="#0e133d"/></g><g clip-path="url(#bda5c9da-87c9-4e56-865b-d87439727550)"><path d="M64.6,65.4l.8-.7Z" fill="#0e133d"/></g><g clip-path="url(#bda5c9da-87c9-4e56-865b-d87439727550)"><polygon points="63.8 65.4 65.4 64.1 65.4 64.7 64.6 65.4 63.8 65.4" fill="#0e143e"/></g><g clip-path="url(#bda5c9da-87c9-4e56-865b-d87439727550)"><polygon points="63 65.4 65.4 63.4 65.4 64.1 63.8 65.4 63 65.4" fill="#0e143f"/></g><g clip-path="url(#bda5c9da-87c9-4e56-865b-d87439727550)"><polygon points="62.2 65.4 65.4 62.7 65.4 63.4 63 65.4 62.2 65.4" fill="#0f1540"/></g><g clip-path="url(#bda5c9da-87c9-4e56-865b-d87439727550)"><polygon points="61.4 65.4 65.4 62 65.4 62.7 62.2 65.4 61.4 65.4" fill="#0f1641"/></g><g clip-path="url(#bda5c9da-87c9-4e56-865b-d87439727550)"><polygon points="60.6 65.4 65.4 61.4 65.4 62 61.4 65.4 60.6 65.4" fill="#0f1742"/></g><g clip-path="url(#bda5c9da-87c9-4e56-865b-d87439727550)"><polygon points="59.8 65.4 65.4 60.7 65.4 61.4 60.6 65.4 59.8 65.4" fill="#0f1743"/></g><g clip-path="url(#bda5c9da-87c9-4e56-865b-d87439727550)"><polygon points="59 65.4 65.4 60 65.4 60.7 59.8 65.4 59 65.4" fill="#101844"/></g><g clip-path="url(#bda5c9da-87c9-4e56-865b-d87439727550)"><polygon points="58.2 65.4 65.4 59.4 65.4 60 59 65.4 58.2 65.4" fill="#101945"/></g><g clip-path="url(#bda5c9da-87c9-4e56-865b-d87439727550)"><polygon points="57.4 65.4 65.4 58.7 65.4 59.4 58.2 65.4 57.4 65.4" fill="#101946"/></g><g clip-path="url(#bda5c9da-87c9-4e56-865b-d87439727550)"><polygon points="56.6 65.4 65.4 58 65.4 58.7 57.4 65.4 56.6 65.4" fill="#101a47"/></g><g clip-path="url(#bda5c9da-87c9-4e56-865b-d87439727550)"><polygon points="55.8 65.4 65.4 57.4 65.4 58 56.6 65.4 55.8 65.4" fill="#101b48"/></g><g clip-path="url(#bda5c9da-87c9-4e56-865b-d87439727550)"><polygon points="55 65.4 65.4 56.7 65.4 57.4 55.8 65.4 55 65.4" fill="#111c49"/></g><g clip-path="url(#bda5c9da-87c9-4e56-865b-d87439727550)"><polygon points="54.2 65.4 65.4 56 65.4 56.7 55 65.4 54.2 65.4" fill="#111c4a"/></g><g clip-path="url(#bda5c9da-87c9-4e56-865b-d87439727550)"><polygon points="53.4 65.4 65.4 55.4 65.4 56 54.2 65.4 53.4 65.4" fill="#111d4b"/></g><g clip-path="url(#bda5c9da-87c9-4e56-865b-d87439727550)"><polygon points="52.6 65.4 65.4 54.7 65.4 55.4 53.4 65.4 52.6 65.4" fill="#111e4c"/></g><g clip-path="url(#bda5c9da-87c9-4e56-865b-d87439727550)"><polygon points="51.8 65.4 65.4 54 65.4 54.7 52.6 65.4 51.8 65.4" fill="#121f4d"/></g><g clip-path="url(#bda5c9da-87c9-4e56-865b-d87439727550)"><polygon points="51 65.4 65.4 53.3 65.4 54 51.8 65.4 51 65.4" fill="#121f4e"/></g><g clip-path="url(#bda5c9da-87c9-4e56-865b-d87439727550)"><polygon points="50.2 65.4 65.4 52.7 65.4 53.3 51 65.4 50.2 65.4" fill="#12204f"/></g><g clip-path="url(#bda5c9da-87c9-4e56-865b-d87439727550)"><polygon points="49.4 65.4 65.4 52 65.4 52.7 50.2 65.4 49.4 65.4" fill="#122150"/></g><g clip-path="url(#bda5c9da-87c9-4e56-865b-d87439727550)"><polygon points="48.6 65.4 65.4 51.3 65.4 52 49.4 65.4 48.6 65.4" fill="#122151"/></g><g clip-path="url(#bda5c9da-87c9-4e56-865b-d87439727550)"><polygon points="47.8 65.4 65.4 50.7 65.4 51.3 48.6 65.4 47.8 65.4" fill="#132252"/></g><g clip-path="url(#bda5c9da-87c9-4e56-865b-d87439727550)"><polygon points="47 65.4 65.4 50 65.4 50.7 47.8 65.4 47 65.4" fill="#132353"/></g><g clip-path="url(#bda5c9da-87c9-4e56-865b-d87439727550)"><polygon points="46.3 65.4 65.4 49.3 65.4 50 47 65.4 46.3 65.4" fill="#132454"/></g><g clip-path="url(#bda5c9da-87c9-4e56-865b-d87439727550)"><polygon points="45.5 65.4 65.4 48.7 65.4 49.3 46.3 65.4 45.5 65.4" fill="#132455"/></g><g clip-path="url(#bda5c9da-87c9-4e56-865b-d87439727550)"><polygon points="44.6 65.4 65.4 48 65.4 48.7 45.5 65.4 44.6 65.4" fill="#142556"/></g><g clip-path="url(#bda5c9da-87c9-4e56-865b-d87439727550)"><polygon points="43.9 65.4 65.4 47.3 65.4 48 44.6 65.4 43.9 65.4" fill="#142657"/></g><g clip-path="url(#bda5c9da-87c9-4e56-865b-d87439727550)"><polygon points="43.1 65.4 65.4 46.7 65.4 47.3 43.9 65.4 43.1 65.4" fill="#142658"/></g><g clip-path="url(#bda5c9da-87c9-4e56-865b-d87439727550)"><polygon points="42.3 65.4 65.4 46 65.4 46.7 43.1 65.4 42.3 65.4" fill="#142759"/></g><g clip-path="url(#bda5c9da-87c9-4e56-865b-d87439727550)"><polygon points="41.5 65.4 65.4 45.3 65.4 46 42.3 65.4 41.5 65.4" fill="#14285a"/></g><g clip-path="url(#bda5c9da-87c9-4e56-865b-d87439727550)"><polygon points="40.7 65.4 65.4 44.6 65.4 45.3 41.5 65.4 40.7 65.4" fill="#15295b"/></g><g clip-path="url(#bda5c9da-87c9-4e56-865b-d87439727550)"><polygon points="39.9 65.4 65.4 44 65.4 44.6 40.7 65.4 39.9 65.4" fill="#15295c"/></g><g clip-path="url(#bda5c9da-87c9-4e56-865b-d87439727550)"><polygon points="39.1 65.4 65.4 43.3 65.4 44 39.9 65.4 39.1 65.4" fill="#152a5d"/></g><g clip-path="url(#bda5c9da-87c9-4e56-865b-d87439727550)"><polygon points="38.3 65.4 65.4 42.6 65.4 43.3 39.1 65.4 38.3 65.4" fill="#152b5e"/></g><g clip-path="url(#bda5c9da-87c9-4e56-865b-d87439727550)"><polygon points="37.5 65.4 65.4 42 65.4 42.6 38.3 65.4 37.5 65.4" fill="#162c60"/></g><g clip-path="url(#bda5c9da-87c9-4e56-865b-d87439727550)"><polygon points="36.7 65.4 65.4 41.3 65.4 42 37.5 65.4 36.7 65.4" fill="#162c61"/></g><g clip-path="url(#bda5c9da-87c9-4e56-865b-d87439727550)"><polygon points="35.9 65.4 65.4 40.6 65.4 41.3 36.7 65.4 35.9 65.4" fill="#162d62"/></g><g clip-path="url(#bda5c9da-87c9-4e56-865b-d87439727550)"><polygon points="35.1 65.4 65.4 40 65.4 40.6 35.9 65.4 35.1 65.4" fill="#162e63"/></g><g clip-path="url(#bda5c9da-87c9-4e56-865b-d87439727550)"><polygon points="34.3 65.4 65.4 39.3 65.4 40 35.1 65.4 34.3 65.4" fill="#162e64"/></g><g clip-path="url(#bda5c9da-87c9-4e56-865b-d87439727550)"><polygon points="33.5 65.4 65.4 38.6 65.4 39.3 34.3 65.4 33.5 65.4" fill="#172f65"/></g><g clip-path="url(#bda5c9da-87c9-4e56-865b-d87439727550)"><polygon points="32.7 65.4 65.4 37.9 65.4 38.6 33.5 65.4 32.7 65.4" fill="#173066"/></g><g clip-path="url(#bda5c9da-87c9-4e56-865b-d87439727550)"><polygon points="31.9 65.4 65.4 37.3 65.4 37.9 32.7 65.4 31.9 65.4" fill="#173167"/></g><g clip-path="url(#bda5c9da-87c9-4e56-865b-d87439727550)"><polygon points="31.1 65.4 65.4 36.6 65.4 37.3 31.9 65.4 31.1 65.4" fill="#173168"/></g><g clip-path="url(#bda5c9da-87c9-4e56-865b-d87439727550)"><polygon points="30.3 65.4 65.4 35.9 65.4 36.6 31.1 65.4 30.3 65.4" fill="#173269"/></g><g clip-path="url(#bda5c9da-87c9-4e56-865b-d87439727550)"><polygon points="29.5 65.4 65.4 35.3 65.4 35.9 30.3 65.4 29.5 65.4" fill="#18336a"/></g><g clip-path="url(#bda5c9da-87c9-4e56-865b-d87439727550)"><polygon points="28.7 65.4 65.4 34.6 65.4 35.3 29.5 65.4 28.7 65.4" fill="#18336b"/></g><g clip-path="url(#bda5c9da-87c9-4e56-865b-d87439727550)"><polygon points="27.9 65.4 65.4 33.9 65.4 34.6 28.7 65.4 27.9 65.4" fill="#18346c"/></g><g clip-path="url(#bda5c9da-87c9-4e56-865b-d87439727550)"><polygon points="27.1 65.4 65.4 33.3 65.4 33.9 27.9 65.4 27.1 65.4" fill="#18356d"/></g><g clip-path="url(#bda5c9da-87c9-4e56-865b-d87439727550)"><polygon points="26.3 65.4 65.4 32.6 65.4 33.3 27.1 65.4 26.3 65.4" fill="#19366e"/></g><g clip-path="url(#bda5c9da-87c9-4e56-865b-d87439727550)"><polygon points="25.5 65.4 65.4 31.9 65.4 32.6 26.3 65.4 25.5 65.4" fill="#19366f"/></g><g clip-path="url(#bda5c9da-87c9-4e56-865b-d87439727550)"><polygon points="24.7 65.4 65.4 31.3 65.4 31.9 25.5 65.4 24.7 65.4" fill="#193770"/></g><g clip-path="url(#bda5c9da-87c9-4e56-865b-d87439727550)"><polygon points="23.9 65.4 65.4 30.6 65.4 31.3 24.7 65.4 23.9 65.4" fill="#193871"/></g><g clip-path="url(#bda5c9da-87c9-4e56-865b-d87439727550)"><polygon points="23.1 65.4 65.4 29.9 65.4 30.6 23.9 65.4 23.1 65.4" fill="#193872"/></g><g clip-path="url(#bda5c9da-87c9-4e56-865b-d87439727550)"><polygon points="22.3 65.4 65.4 29.2 65.4 29.9 23.1 65.4 22.3 65.4" fill="#1a3973"/></g><g clip-path="url(#bda5c9da-87c9-4e56-865b-d87439727550)"><polygon points="21.5 65.4 65.4 28.6 65.4 29.2 22.3 65.4 21.5 65.4" fill="#1a3a74"/></g><g clip-path="url(#bda5c9da-87c9-4e56-865b-d87439727550)"><polygon points="20.7 65.4 65.4 27.9 65.4 28.6 21.5 65.4 20.7 65.4" fill="#1a3b75"/></g><g clip-path="url(#bda5c9da-87c9-4e56-865b-d87439727550)"><polygon points="19.9 65.4 65.4 27.2 65.4 27.9 20.7 65.4 19.9 65.4" fill="#1a3b76"/></g><g clip-path="url(#bda5c9da-87c9-4e56-865b-d87439727550)"><polygon points="19.1 65.4 65.4 26.6 65.4 27.2 19.9 65.4 19.1 65.4" fill="#1b3c77"/></g><g clip-path="url(#bda5c9da-87c9-4e56-865b-d87439727550)"><polygon points="18.3 65.4 65.4 25.9 65.4 26.6 19.1 65.4 18.3 65.4" fill="#1b3d78"/></g><g clip-path="url(#bda5c9da-87c9-4e56-865b-d87439727550)"><polygon points="17.5 65.4 65.4 25.2 65.4 25.9 18.3 65.4 17.5 65.4" fill="#1b3e79"/></g><g clip-path="url(#bda5c9da-87c9-4e56-865b-d87439727550)"><polygon points="16.7 65.4 65.4 24.6 65.4 25.2 17.5 65.4 16.7 65.4" fill="#1b3e7a"/></g><g clip-path="url(#bda5c9da-87c9-4e56-865b-d87439727550)"><polygon points="15.9 65.4 65.4 23.9 65.4 24.6 16.7 65.4 15.9 65.4" fill="#1b3f7b"/></g><g clip-path="url(#bda5c9da-87c9-4e56-865b-d87439727550)"><polygon points="15.1 65.4 65.4 23.2 65.4 23.9 15.9 65.4 15.1 65.4" fill="#1c407c"/></g><g clip-path="url(#bda5c9da-87c9-4e56-865b-d87439727550)"><polygon points="14.3 65.4 65.4 22.5 65.4 23.2 15.1 65.4 14.3 65.4" fill="#1c407d"/></g><g clip-path="url(#bda5c9da-87c9-4e56-865b-d87439727550)"><polygon points="13.5 65.4 65.4 21.9 65.4 22.5 14.3 65.4 13.5 65.4" fill="#1c417e"/></g><g clip-path="url(#bda5c9da-87c9-4e56-865b-d87439727550)"><polygon points="12.7 65.4 65.4 21.2 65.4 21.9 13.5 65.4 12.7 65.4" fill="#1c427f"/></g><g clip-path="url(#bda5c9da-87c9-4e56-865b-d87439727550)"><polygon points="11.9 65.4 65.4 20.5 65.4 21.2 12.7 65.4 11.9 65.4" fill="#1d4380"/></g><g clip-path="url(#bda5c9da-87c9-4e56-865b-d87439727550)"><polygon points="11.1 65.4 65.4 19.9 65.4 20.5 11.9 65.4 11.1 65.4" fill="#1d4381"/></g><g clip-path="url(#bda5c9da-87c9-4e56-865b-d87439727550)"><polygon points="10.3 65.4 65.4 19.2 65.4 19.9 11.1 65.4 10.3 65.4" fill="#1d4482"/></g><g clip-path="url(#bda5c9da-87c9-4e56-865b-d87439727550)"><polygon points="3.6 65.4 65.4 13.6 65.4 19.2 10.3 65.4 3.6 65.4" fill="#1d4482"/></g><g clip-path="url(#bda5c9da-87c9-4e56-865b-d87439727550)"><polygon points="0 62.8 65.4 7.9 65.4 13.6 3.6 65.4 0 65.4 0 62.8" fill="#1e4381"/></g><g clip-path="url(#bda5c9da-87c9-4e56-865b-d87439727550)"><polygon points="0 57.2 65.4 2.3 65.4 7.9 0 62.8 0 57.2" fill="#1f427f"/></g><g clip-path="url(#bda5c9da-87c9-4e56-865b-d87439727550)"><polygon points="0 51.5 61.4 0 65.4 0 65.4 2.3 0 57.2 0 51.5" fill="#1f417e"/></g><g clip-path="url(#bda5c9da-87c9-4e56-865b-d87439727550)"><polygon points="0 45.9 54.7 0 61.4 0 0 51.5 0 45.9" fill="#20407d"/></g><g clip-path="url(#bda5c9da-87c9-4e56-865b-d87439727550)"><polygon points="0 45.2 53.9 0 54.7 0 0 45.9 0 45.2" fill="#20407d"/></g><g clip-path="url(#bda5c9da-87c9-4e56-865b-d87439727550)"><polygon points="0 44.6 53.1 0 53.9 0 0 45.2 0 44.6" fill="#203f7c"/></g><g clip-path="url(#bda5c9da-87c9-4e56-865b-d87439727550)"><polygon points="0 43.9 52.3 0 53.1 0 0 44.6 0 43.9" fill="#1f3f7b"/></g><g clip-path="url(#bda5c9da-87c9-4e56-865b-d87439727550)"><polygon points="0 43.2 51.5 0 52.3 0 0 43.9 0 43.2" fill="#1f3e7a"/></g><g clip-path="url(#bda5c9da-87c9-4e56-865b-d87439727550)"><polygon points="0 42.5 50.7 0 51.5 0 0 43.2 0 42.5" fill="#1f3d79"/></g><g clip-path="url(#bda5c9da-87c9-4e56-865b-d87439727550)"><polygon points="0 41.9 49.9 0 50.7 0 0 42.5 0 41.9" fill="#1f3c78"/></g><g clip-path="url(#bda5c9da-87c9-4e56-865b-d87439727550)"><polygon points="0 41.2 49.1 0 49.9 0 0 41.9 0 41.2" fill="#1e3c77"/></g><g clip-path="url(#bda5c9da-87c9-4e56-865b-d87439727550)"><polygon points="0 40.5 48.3 0 49.1 0 0 41.2 0 40.5" fill="#1e3b76"/></g><g clip-path="url(#bda5c9da-87c9-4e56-865b-d87439727550)"><polygon points="0 39.9 47.5 0 48.3 0 0 40.5 0 39.9" fill="#1e3a75"/></g><g clip-path="url(#bda5c9da-87c9-4e56-865b-d87439727550)"><polygon points="0 39.2 46.7 0 47.5 0 0 39.9 0 39.2" fill="#1d3a74"/></g><g clip-path="url(#bda5c9da-87c9-4e56-865b-d87439727550)"><polygon points="0 38.5 45.9 0 46.7 0 0 39.2 0 38.5" fill="#1d3973"/></g><g clip-path="url(#bda5c9da-87c9-4e56-865b-d87439727550)"><polygon points="0 37.8 45.1 0 45.9 0 0 38.5 0 37.8" fill="#1d3872"/></g><g clip-path="url(#bda5c9da-87c9-4e56-865b-d87439727550)"><polygon points="0 37.2 44.3 0 45.1 0 0 37.8 0 37.2" fill="#1d3771"/></g><g clip-path="url(#bda5c9da-87c9-4e56-865b-d87439727550)"><polygon points="0 36.5 43.5 0 44.3 0 0 37.2 0 36.5" fill="#1c3770"/></g><g clip-path="url(#bda5c9da-87c9-4e56-865b-d87439727550)"><polygon points="0 35.8 42.7 0 43.5 0 0 36.5 0 35.8" fill="#1c366f"/></g><g clip-path="url(#bda5c9da-87c9-4e56-865b-d87439727550)"><polygon points="0 35.2 41.9 0 42.7 0 0 35.8 0 35.2" fill="#1c356e"/></g><g clip-path="url(#bda5c9da-87c9-4e56-865b-d87439727550)"><polygon points="0 34.5 41.1 0 41.9 0 0 35.2 0 34.5" fill="#1b356d"/></g><g clip-path="url(#bda5c9da-87c9-4e56-865b-d87439727550)"><polygon points="0 33.8 40.3 0 41.1 0 0 34.5 0 33.8" fill="#1b346c"/></g><g clip-path="url(#bda5c9da-87c9-4e56-865b-d87439727550)"><polygon points="0 33.1 39.5 0 40.3 0 0 33.8 0 33.1" fill="#1b336b"/></g><g clip-path="url(#bda5c9da-87c9-4e56-865b-d87439727550)"><polygon points="0 32.5 38.7 0 39.5 0 0 33.1 0 32.5" fill="#1b326a"/></g><g clip-path="url(#bda5c9da-87c9-4e56-865b-d87439727550)"><polygon points="0 31.8 37.9 0 38.7 0 0 32.5 0 31.8" fill="#1a3269"/></g><g clip-path="url(#bda5c9da-87c9-4e56-865b-d87439727550)"><polygon points="0 31.1 37.1 0 37.9 0 0 31.8 0 31.1" fill="#1a3168"/></g><g clip-path="url(#bda5c9da-87c9-4e56-865b-d87439727550)"><polygon points="0 30.5 36.3 0 37.1 0 0 31.1 0 30.5" fill="#1a3067"/></g><g clip-path="url(#bda5c9da-87c9-4e56-865b-d87439727550)"><polygon points="0 29.8 35.5 0 36.3 0 0 30.5 0 29.8" fill="#193066"/></g><g clip-path="url(#bda5c9da-87c9-4e56-865b-d87439727550)"><polygon points="0 29.1 34.7 0 35.5 0 0 29.8 0 29.1" fill="#192f65"/></g><g clip-path="url(#bda5c9da-87c9-4e56-865b-d87439727550)"><polygon points="0 28.5 33.9 0 34.7 0 0 29.1 0 28.5" fill="#192e64"/></g><g clip-path="url(#bda5c9da-87c9-4e56-865b-d87439727550)"><polygon points="0 27.8 33.1 0 33.9 0 0 28.5 0 27.8" fill="#192d63"/></g><g clip-path="url(#bda5c9da-87c9-4e56-865b-d87439727550)"><polygon points="0 27.1 32.3 0 33.1 0 0 27.8 0 27.1" fill="#182d62"/></g><g clip-path="url(#bda5c9da-87c9-4e56-865b-d87439727550)"><polygon points="0 26.4 31.5 0 32.3 0 0 27.1 0 26.4" fill="#182c61"/></g><g clip-path="url(#bda5c9da-87c9-4e56-865b-d87439727550)"><polygon points="0 25.8 30.7 0 31.5 0 0 26.4 0 25.8" fill="#182b60"/></g><g clip-path="url(#bda5c9da-87c9-4e56-865b-d87439727550)"><polygon points="0 25.1 29.9 0 30.7 0 0 25.8 0 25.1" fill="#172b5f"/></g><g clip-path="url(#bda5c9da-87c9-4e56-865b-d87439727550)"><polygon points="0 24.4 29.1 0 29.9 0 0 25.1 0 24.4" fill="#172a5e"/></g><g clip-path="url(#bda5c9da-87c9-4e56-865b-d87439727550)"><polygon points="0 23.8 28.3 0 29.1 0 0 24.4 0 23.8" fill="#17295c"/></g><g clip-path="url(#bda5c9da-87c9-4e56-865b-d87439727550)"><polygon points="0 23.1 27.5 0 28.3 0 0 23.8 0 23.1" fill="#17285b"/></g><g clip-path="url(#bda5c9da-87c9-4e56-865b-d87439727550)"><polygon points="0 22.4 26.7 0 27.5 0 0 23.1 0 22.4" fill="#16285a"/></g><g clip-path="url(#bda5c9da-87c9-4e56-865b-d87439727550)"><polygon points="0 21.7 25.9 0 26.7 0 0 22.4 0 21.7" fill="#162759"/></g><g clip-path="url(#bda5c9da-87c9-4e56-865b-d87439727550)"><polygon points="0 21.1 25.1 0 25.9 0 0 21.7 0 21.1" fill="#162658"/></g><g clip-path="url(#bda5c9da-87c9-4e56-865b-d87439727550)"><polygon points="0 20.4 24.3 0 25.1 0 0 21.1 0 20.4" fill="#152657"/></g><g clip-path="url(#bda5c9da-87c9-4e56-865b-d87439727550)"><polygon points="0 19.7 23.5 0 24.3 0 0 20.4 0 19.7" fill="#152556"/></g><g clip-path="url(#bda5c9da-87c9-4e56-865b-d87439727550)"><polygon points="0 19.1 22.7 0 23.5 0 0 19.7 0 19.1" fill="#152455"/></g><g clip-path="url(#bda5c9da-87c9-4e56-865b-d87439727550)"><polygon points="0 18.4 21.9 0 22.7 0 0 19.1 0 18.4" fill="#152354"/></g><g clip-path="url(#bda5c9da-87c9-4e56-865b-d87439727550)"><polygon points="0 17.7 21.1 0 21.9 0 0 18.4 0 17.7" fill="#142353"/></g><g clip-path="url(#bda5c9da-87c9-4e56-865b-d87439727550)"><polygon points="0 17.1 20.3 0 21.1 0 0 17.7 0 17.1" fill="#142252"/></g><g clip-path="url(#bda5c9da-87c9-4e56-865b-d87439727550)"><polygon points="0 16.4 19.5 0 20.3 0 0 17.1 0 16.4" fill="#142151"/></g><g clip-path="url(#bda5c9da-87c9-4e56-865b-d87439727550)"><polygon points="0 15.7 18.7 0 19.5 0 0 16.4 0 15.7" fill="#132150"/></g><g clip-path="url(#bda5c9da-87c9-4e56-865b-d87439727550)"><polygon points="0 15 17.9 0 18.7 0 0 15.7 0 15" fill="#13204f"/></g><g clip-path="url(#bda5c9da-87c9-4e56-865b-d87439727550)"><polygon points="0 14.4 17.1 0 17.9 0 0 15 0 14.4" fill="#131f4e"/></g><g clip-path="url(#bda5c9da-87c9-4e56-865b-d87439727550)"><polygon points="0 13.7 16.3 0 17.1 0 0 14.4 0 13.7" fill="#131e4d"/></g><g clip-path="url(#bda5c9da-87c9-4e56-865b-d87439727550)"><polygon points="0 13 15.5 0 16.3 0 0 13.7 0 13" fill="#121e4c"/></g><g clip-path="url(#bda5c9da-87c9-4e56-865b-d87439727550)"><polygon points="0 12.4 14.7 0 15.5 0 0 13 0 12.4" fill="#121d4b"/></g><g clip-path="url(#bda5c9da-87c9-4e56-865b-d87439727550)"><polygon points="0 11.7 13.9 0 14.7 0 0 12.4 0 11.7" fill="#121c4a"/></g><g clip-path="url(#bda5c9da-87c9-4e56-865b-d87439727550)"><polygon points="0 11 13.1 0 13.9 0 0 11.7 0 11" fill="#111c49"/></g><g clip-path="url(#bda5c9da-87c9-4e56-865b-d87439727550)"><polygon points="0 10.3 12.3 0 13.1 0 0 11 0 10.3" fill="#111b48"/></g><g clip-path="url(#bda5c9da-87c9-4e56-865b-d87439727550)"><polygon points="0 9.7 11.5 0 12.3 0 0 10.3 0 9.7" fill="#111a47"/></g><g clip-path="url(#bda5c9da-87c9-4e56-865b-d87439727550)"><polygon points="0 9 10.7 0 11.5 0 0 9.7 0 9" fill="#111946"/></g><g clip-path="url(#bda5c9da-87c9-4e56-865b-d87439727550)"><polygon points="0 8.3 9.9 0 10.7 0 0 9 0 8.3" fill="#101945"/></g><g clip-path="url(#bda5c9da-87c9-4e56-865b-d87439727550)"><polygon points="0 7.7 9.1 0 9.9 0 0 8.3 0 7.7" fill="#101844"/></g><g clip-path="url(#bda5c9da-87c9-4e56-865b-d87439727550)"><polygon points="0 7 8.3 0 9.1 0 0 7.7 0 7" fill="#101743"/></g><g clip-path="url(#bda5c9da-87c9-4e56-865b-d87439727550)"><polygon points="0 6.3 7.5 0 8.3 0 0 7 0 6.3" fill="#0f1742"/></g><g clip-path="url(#bda5c9da-87c9-4e56-865b-d87439727550)"><polygon points="0 5.7 6.7 0 7.5 0 0 6.3 0 5.7" fill="#0f1641"/></g><g clip-path="url(#bda5c9da-87c9-4e56-865b-d87439727550)"><polygon points="0 5 5.9 0 6.7 0 0 5.7 0 5" fill="#0f1540"/></g><g clip-path="url(#bda5c9da-87c9-4e56-865b-d87439727550)"><polygon points="0 4.3 5.1 0 5.9 0 0 5 0 4.3" fill="#0f143f"/></g><g clip-path="url(#bda5c9da-87c9-4e56-865b-d87439727550)"><polygon points="0 3.6 4.3 0 5.1 0 0 4.3 0 3.6" fill="#0e143e"/></g><g clip-path="url(#bda5c9da-87c9-4e56-865b-d87439727550)"><polygon points="0 3 3.5 0 4.3 0 0 3.6 0 3" fill="#0e133d"/></g><g clip-path="url(#bda5c9da-87c9-4e56-865b-d87439727550)"><polygon points="3.5 0 0 3 0 0 3.5 0" fill="#0e133d"/></g><rect x="65.4" y="65.4" width="19.6" height="19.6" fill="#c1804c"/><path d="M10.7,20.5V11.9H8.4v8.6Zm15.1.1V18.5H25a.68.68,0,0,1-.7-.7V14H26V12.1H24.3V8.5H22v8.4a9,9,0,0,0,.2,1.8,1.68,1.68,0,0,0,.6,1.1,2.38,2.38,0,0,0,1.1.6,7.93,7.93,0,0,0,1.7.2Zm13-.1V7.8H36.5V20.5ZM19.7,12.7a3.25,3.25,0,0,0-2.6-1,4,4,0,0,0-1.5.3,3.13,3.13,0,0,0-1.1.9l-.1.2V11.9H12v8.6h2.3V16a2.44,2.44,0,0,1,.6-1.8,2,2,0,0,1,1.4-.6,1.75,1.75,0,0,1,1.5.6,2.65,2.65,0,0,1,.5,1.7h0v4.6h2.3V15.6A4.37,4.37,0,0,0,19.7,12.7Zm15.7,3.5a4.67,4.67,0,0,0-.3-1.7,4.19,4.19,0,0,0-.9-1.4,7.1,7.1,0,0,0-1.4-1,3.61,3.61,0,0,0-1.8-.3,3.92,3.92,0,0,0-1.8.4,4.51,4.51,0,0,0-1.4,1,7.1,7.1,0,0,0-1,1.4,4.78,4.78,0,0,0-.4,1.8,5.66,5.66,0,0,0,.3,1.8,3.39,3.39,0,0,0,.9,1.4,7.1,7.1,0,0,0,1.4,1,5.85,5.85,0,0,0,1.9.4,4.88,4.88,0,0,0,3.8-1.7L33.1,18a3,3,0,0,1-2.2,1,2.73,2.73,0,0,1-1.6-.4c-.3-.6-.5-1.1-.7-1.6v-.1h6.8v-.7Zm-6.8-.8a2.09,2.09,0,0,1,2.3-1.7,2.09,2.09,0,0,1,2.3,1.7Z" fill="#fff"/><path d="M41.4,19.4c0-.1-.1-.2-.2-.3s-.1-.1-.2-.2-.2-.1-.3-.1a.37.37,0,0,0-.3.1c-.1,0-.2.1-.3.2s-.1.2-.2.3-.1.2-.1.3a.37.37,0,0,0,.1.3c0,.1.1.2.2.3s.2.1.3.2.2.1.3.1a.37.37,0,0,0,.3-.1c.1,0,.2-.1.3-.2s.1-.2.2-.3.1-.2.1-.3S41.5,19.5,41.4,19.4Zm-.1.6a.35.35,0,0,1-.1.2c-.1.1-.1.1-.2.1h-.6a.35.35,0,0,1-.2-.1c-.1-.1-.1-.2-.2-.2v-.6a.35.35,0,0,1,.1-.2c.1-.1.1-.1.2-.1h.6a.35.35,0,0,1,.2.1c.1.1.1.1.1.2v.3C41.4,19.8,41.3,19.9,41.3,20Zm-.5-.2c.1,0,.1,0,.2-.1a.35.35,0,0,0,.1-.2c0-.1,0-.2-.1-.2a.44.44,0,0,0-.3-.1h-.4v1h.2v-.4h.1l.2.4H41Zm-.1-.2h-.2v-.3h.3v.2c0,.1,0,.1-.1.1Z" fill="#fff"/><path d="M16.3,40.3l3.3-6h4.1l-5.1,8.6,5.2,8.8H19.6l-3.3-6.1L13,51.7H8.8L14,42.9,8.9,34.3H13Z" fill="#fff"/><path d="M36,44.1H29.1v4.7h8.1v2.9H25.6V34.3H37.2v2.9h-8v4.1H36Z" fill="#fff"/><path d="M53.5,43.4a10.63,10.63,0,0,1-.9,4.5,7,7,0,0,1-2.6,3,7.09,7.09,0,0,1-3.9,1,6.69,6.69,0,0,1-6.4-4,10.49,10.49,0,0,1-.9-4.4v-.9a10.63,10.63,0,0,1,.9-4.5,7,7,0,0,1,2.6-3,7.09,7.09,0,0,1,3.9-1,8.36,8.36,0,0,1,3.9,1,7,7,0,0,1,2.6,3,10.63,10.63,0,0,1,.9,4.5l-.1.8Zm-3.6-.8a7.26,7.26,0,0,0-1-4.2,3.5,3.5,0,0,0-5.6,0,6.71,6.71,0,0,0-1,4.1v.9a6.91,6.91,0,0,0,1,4.1A3.22,3.22,0,0,0,46.1,49a3.37,3.37,0,0,0,2.8-1.4,7.48,7.48,0,0,0,1-4.1Z" fill="#fff"/><path d="M70.3,51.6H66.7l-7-11.4V51.6H56.1V34.3h3.6l7,11.4V34.3h3.6V51.6Z" fill="#fff"/><path d="M8.5,80V70.2h3.2a3.29,3.29,0,0,1,2.4.7,2.41,2.41,0,0,1,.8,1.9,1.59,1.59,0,0,1-.4,1.2,3.13,3.13,0,0,1-1.1.8,2.58,2.58,0,0,1,1.3.8,2,2,0,0,1,.5,1.5,2.86,2.86,0,0,1-.8,2.1A3.65,3.65,0,0,1,12,80Zm1.3-5.6h1.9A1.7,1.7,0,0,0,13,74a1.69,1.69,0,0,0,0-2.4,2.59,2.59,0,0,0-1.4-.4H9.8Zm0,1V79h2.1a2,2,0,0,0,1.4-.5,1.73,1.73,0,0,0,.5-1.3c0-1.2-.6-1.8-1.9-1.8Z" fill="#fff"/><path d="M20.6,76.1H18.3V80H17V70.2h3.2a3.74,3.74,0,0,1,2.5.8,2.66,2.66,0,0,1,.9,2.2,3,3,0,0,1-.5,1.6,2.43,2.43,0,0,1-1.4,1L24,79.9V80H22.6ZM18.3,75h2a2.46,2.46,0,0,0,1.5-.5,1.61,1.61,0,0,0,.6-1.3,2,2,0,0,0-.5-1.4,2.54,2.54,0,0,0-1.6-.5h-2V75Z" fill="#fff"/><path d="M33,75.4a6.18,6.18,0,0,1-.5,2.5,3.17,3.17,0,0,1-1.4,1.6,4.69,4.69,0,0,1-2.1.6,3.38,3.38,0,0,1-2-.6,3.64,3.64,0,0,1-1.4-1.6,6,6,0,0,1-.5-2.4v-.7a6.55,6.55,0,0,1,.5-2.5A3.91,3.91,0,0,1,27,70.6a3.61,3.61,0,0,1,2-.6,3.7,3.7,0,0,1,2.1.6,3.64,3.64,0,0,1,1.4,1.6,6.55,6.55,0,0,1,.5,2.5v.7Zm-1.3-.6a4.33,4.33,0,0,0-.7-2.7,2.32,2.32,0,0,0-1.9-.9,2.2,2.2,0,0,0-1.9.9,4,4,0,0,0-.7,2.6v.7a4,4,0,0,0,.7,2.6,2.42,2.42,0,0,0,1.9,1,2.2,2.2,0,0,0,1.9-.9,4,4,0,0,0,.7-2.6v-.7Z" fill="#fff"/><path d="M42.4,80H41.1l-4.9-7.5V80H34.9V70.2h1.3l4.9,7.6V70.2h1.3Z" fill="#fff"/><path d="M45.7,79h5.6v1H44.2V79l5.3-7.7H44.2V70.2H51v.9Z" fill="#fff"/><path d="M58.4,75.5H54.2V79h4.9v1H52.9V70.2H59v1.1H54.2v3.1h4.2Z" fill="#fff"/></svg>