<svg id="e200255f-8ca0-4d25-96df-4a31fd6c2730" data-name="Layer 1" xmlns="http://www.w3.org/2000/svg" xmlns:xlink="http://www.w3.org/1999/xlink" width="85" height="85" viewBox="0 0 85 85"><defs><clipPath id="e11f5947-be69-4a14-96a6-9454c324a239"><rect width="65.4" height="65.4" fill="none"/></clipPath></defs><rect width="85" height="85" fill="#1a4686"/><g clip-path="url(#e11f5947-be69-4a14-96a6-9454c324a239)"><path d="M65.4,65.4Z" fill="#0e133d"/></g><g clip-path="url(#e11f5947-be69-4a14-96a6-9454c324a239)"><path d="M65,65.4,65.4,65Z" fill="#0e133d"/></g><g clip-path="url(#e11f5947-be69-4a14-96a6-9454c324a239)"><polygon points="64.53 65.4 65.4 64.66 65.4 65.04 64.96 65.4 64.53 65.4" fill="#0e133d"/></g><g clip-path="url(#e11f5947-be69-4a14-96a6-9454c324a239)"><polygon points="64.09 65.4 65.4 64.3 65.4 64.66 64.53 65.4 64.09 65.4" fill="#0f143e"/></g><g clip-path="url(#e11f5947-be69-4a14-96a6-9454c324a239)"><polygon points="63.65 65.4 65.4 63.93 65.4 64.3 64.09 65.4 63.65 65.4" fill="#0f143e"/></g><g clip-path="url(#e11f5947-be69-4a14-96a6-9454c324a239)"><polygon points="63.22 65.4 65.4 63.57 65.4 63.93 63.65 65.4 63.22 65.4" fill="#0f153f"/></g><g clip-path="url(#e11f5947-be69-4a14-96a6-9454c324a239)"><polygon points="62.78 65.4 65.4 63.2 65.4 63.57 63.22 65.4 62.78 65.4" fill="#0f153f"/></g><g clip-path="url(#e11f5947-be69-4a14-96a6-9454c324a239)"><polygon points="62.34 65.4 65.4 62.83 65.4 63.2 62.78 65.4 62.34 65.4" fill="#101640"/></g><g clip-path="url(#e11f5947-be69-4a14-96a6-9454c324a239)"><polygon points="61.9 65.4 65.4 62.46 65.4 62.83 62.34 65.4 61.9 65.4" fill="#101640"/></g><g clip-path="url(#e11f5947-be69-4a14-96a6-9454c324a239)"><polygon points="61.47 65.4 65.4 62.1 65.4 62.46 61.9 65.4 61.47 65.4" fill="#101741"/></g><g clip-path="url(#e11f5947-be69-4a14-96a6-9454c324a239)"><polygon points="61.03 65.4 65.4 61.73 65.4 62.1 61.47 65.4 61.03 65.4" fill="#111741"/></g><g clip-path="url(#e11f5947-be69-4a14-96a6-9454c324a239)"><polygon points="60.59 65.4 65.4 61.37 65.4 61.73 61.03 65.4 60.59 65.4" fill="#111842"/></g><g clip-path="url(#e11f5947-be69-4a14-96a6-9454c324a239)"><polygon points="60.16 65.4 65.4 61.01 65.4 61.37 60.59 65.4 60.16 65.4" fill="#111842"/></g><g clip-path="url(#e11f5947-be69-4a14-96a6-9454c324a239)"><polygon points="59.72 65.4 65.4 60.63 65.4 61.01 60.16 65.4 59.72 65.4" fill="#111843"/></g><g clip-path="url(#e11f5947-be69-4a14-96a6-9454c324a239)"><polygon points="59.28 65.4 65.4 60.27 65.4 60.63 59.72 65.4 59.28 65.4" fill="#121943"/></g><g clip-path="url(#e11f5947-be69-4a14-96a6-9454c324a239)"><polygon points="58.84 65.4 65.4 59.9 65.4 60.27 59.28 65.4 58.84 65.4" fill="#121944"/></g><g clip-path="url(#e11f5947-be69-4a14-96a6-9454c324a239)"><polygon points="58.41 65.4 65.4 59.54 65.4 59.9 58.84 65.4 58.41 65.4" fill="#121a44"/></g><g clip-path="url(#e11f5947-be69-4a14-96a6-9454c324a239)"><polygon points="57.97 65.4 65.4 59.17 65.4 59.54 58.41 65.4 57.97 65.4" fill="#121a45"/></g><g clip-path="url(#e11f5947-be69-4a14-96a6-9454c324a239)"><polygon points="57.53 65.4 65.4 58.8 65.4 59.17 57.97 65.4 57.53 65.4" fill="#131b46"/></g><g clip-path="url(#e11f5947-be69-4a14-96a6-9454c324a239)"><polygon points="57.1 65.4 65.4 58.43 65.4 58.8 57.53 65.4 57.1 65.4" fill="#131b46"/></g><g clip-path="url(#e11f5947-be69-4a14-96a6-9454c324a239)"><polygon points="56.66 65.4 65.4 58.07 65.4 58.43 57.1 65.4 56.66 65.4" fill="#131c47"/></g><g clip-path="url(#e11f5947-be69-4a14-96a6-9454c324a239)"><polygon points="56.22 65.4 65.4 57.7 65.4 58.07 56.66 65.4 56.22 65.4" fill="#131c47"/></g><g clip-path="url(#e11f5947-be69-4a14-96a6-9454c324a239)"><polygon points="55.78 65.4 65.4 57.34 65.4 57.7 56.22 65.4 55.78 65.4" fill="#141c48"/></g><g clip-path="url(#e11f5947-be69-4a14-96a6-9454c324a239)"><polygon points="55.35 65.4 65.4 56.96 65.4 57.34 55.78 65.4 55.35 65.4" fill="#141d48"/></g><g clip-path="url(#e11f5947-be69-4a14-96a6-9454c324a239)"><polygon points="54.91 65.4 65.4 56.6 65.4 56.96 55.35 65.4 54.91 65.4" fill="#141d49"/></g><g clip-path="url(#e11f5947-be69-4a14-96a6-9454c324a239)"><polygon points="54.47 65.4 65.4 56.23 65.4 56.6 54.91 65.4 54.47 65.4" fill="#141e49"/></g><g clip-path="url(#e11f5947-be69-4a14-96a6-9454c324a239)"><polygon points="54.04 65.4 65.4 55.87 65.4 56.23 54.47 65.4 54.04 65.4" fill="#141e4a"/></g><g clip-path="url(#e11f5947-be69-4a14-96a6-9454c324a239)"><polygon points="53.6 65.4 65.4 55.51 65.4 55.87 54.04 65.4 53.6 65.4" fill="#151e4a"/></g><g clip-path="url(#e11f5947-be69-4a14-96a6-9454c324a239)"><polygon points="53.16 65.4 65.4 55.13 65.4 55.51 53.6 65.4 53.16 65.4" fill="#151f4b"/></g><g clip-path="url(#e11f5947-be69-4a14-96a6-9454c324a239)"><polygon points="52.72 65.4 65.4 54.76 65.4 55.13 53.16 65.4 52.72 65.4" fill="#151f4b"/></g><g clip-path="url(#e11f5947-be69-4a14-96a6-9454c324a239)"><polygon points="52.29 65.4 65.4 54.4 65.4 54.76 52.72 65.4 52.29 65.4" fill="#15204c"/></g><g clip-path="url(#e11f5947-be69-4a14-96a6-9454c324a239)"><polygon points="51.85 65.4 65.4 54.04 65.4 54.4 52.29 65.4 51.85 65.4" fill="#15204d"/></g><g clip-path="url(#e11f5947-be69-4a14-96a6-9454c324a239)"><polygon points="51.41 65.4 65.4 53.67 65.4 54.04 51.85 65.4 51.41 65.4" fill="#16214d"/></g><g clip-path="url(#e11f5947-be69-4a14-96a6-9454c324a239)"><polygon points="50.98 65.4 65.4 53.3 65.4 53.67 51.41 65.4 50.98 65.4" fill="#16214e"/></g><g clip-path="url(#e11f5947-be69-4a14-96a6-9454c324a239)"><polygon points="50.54 65.4 65.4 52.93 65.4 53.3 50.98 65.4 50.54 65.4" fill="#16214e"/></g><g clip-path="url(#e11f5947-be69-4a14-96a6-9454c324a239)"><polygon points="50.1 65.4 65.4 52.57 65.4 52.93 50.54 65.4 50.1 65.4" fill="#16224f"/></g><g clip-path="url(#e11f5947-be69-4a14-96a6-9454c324a239)"><polygon points="49.66 65.4 65.4 52.2 65.4 52.57 50.1 65.4 49.66 65.4" fill="#16224f"/></g><g clip-path="url(#e11f5947-be69-4a14-96a6-9454c324a239)"><polygon points="49.23 65.4 65.4 51.84 65.4 52.2 49.66 65.4 49.23 65.4" fill="#172350"/></g><g clip-path="url(#e11f5947-be69-4a14-96a6-9454c324a239)"><polygon points="48.79 65.4 65.4 51.46 65.4 51.84 49.23 65.4 48.79 65.4" fill="#172350"/></g><g clip-path="url(#e11f5947-be69-4a14-96a6-9454c324a239)"><polygon points="48.35 65.4 65.4 51.1 65.4 51.46 48.79 65.4 48.35 65.4" fill="#172351"/></g><g clip-path="url(#e11f5947-be69-4a14-96a6-9454c324a239)"><polygon points="47.92 65.4 65.4 50.73 65.4 51.1 48.35 65.4 47.92 65.4" fill="#172452"/></g><g clip-path="url(#e11f5947-be69-4a14-96a6-9454c324a239)"><polygon points="47.48 65.4 65.4 50.37 65.4 50.73 47.92 65.4 47.48 65.4" fill="#172452"/></g><g clip-path="url(#e11f5947-be69-4a14-96a6-9454c324a239)"><polygon points="47.04 65.4 65.4 50 65.4 50.37 47.48 65.4 47.04 65.4" fill="#182553"/></g><g clip-path="url(#e11f5947-be69-4a14-96a6-9454c324a239)"><polygon points="46.62 65.4 65.4 49.63 65.4 50 47.04 65.4 46.62 65.4" fill="#182553"/></g><g clip-path="url(#e11f5947-be69-4a14-96a6-9454c324a239)"><polygon points="46.18 65.4 65.4 49.26 65.4 49.63 46.62 65.4 46.18 65.4" fill="#182554"/></g><g clip-path="url(#e11f5947-be69-4a14-96a6-9454c324a239)"><polygon points="45.74 65.4 65.4 48.9 65.4 49.26 46.18 65.4 45.74 65.4" fill="#182654"/></g><g clip-path="url(#e11f5947-be69-4a14-96a6-9454c324a239)"><polygon points="45.3 65.4 65.4 48.53 65.4 48.9 45.74 65.4 45.3 65.4" fill="#182655"/></g><g clip-path="url(#e11f5947-be69-4a14-96a6-9454c324a239)"><polygon points="44.87 65.4 65.4 48.17 65.4 48.53 45.3 65.4 44.87 65.4" fill="#192755"/></g><g clip-path="url(#e11f5947-be69-4a14-96a6-9454c324a239)"><polygon points="44.43 65.4 65.4 47.81 65.4 48.17 44.87 65.4 44.43 65.4" fill="#192756"/></g><g clip-path="url(#e11f5947-be69-4a14-96a6-9454c324a239)"><polygon points="43.99 65.4 65.4 47.43 65.4 47.81 44.43 65.4 43.99 65.4" fill="#192757"/></g><g clip-path="url(#e11f5947-be69-4a14-96a6-9454c324a239)"><polygon points="43.56 65.4 65.4 47.07 65.4 47.43 43.99 65.4 43.56 65.4" fill="#192857"/></g><g clip-path="url(#e11f5947-be69-4a14-96a6-9454c324a239)"><polygon points="43.12 65.4 65.4 46.7 65.4 47.07 43.56 65.4 43.12 65.4" fill="#192858"/></g><g clip-path="url(#e11f5947-be69-4a14-96a6-9454c324a239)"><polygon points="42.68 65.4 65.4 46.34 65.4 46.7 43.12 65.4 42.68 65.4" fill="#192858"/></g><g clip-path="url(#e11f5947-be69-4a14-96a6-9454c324a239)"><polygon points="42.24 65.4 65.4 45.97 65.4 46.34 42.68 65.4 42.24 65.4" fill="#1a2959"/></g><g clip-path="url(#e11f5947-be69-4a14-96a6-9454c324a239)"><polygon points="41.81 65.4 65.4 45.6 65.4 45.97 42.24 65.4 41.81 65.4" fill="#1a2959"/></g><g clip-path="url(#e11f5947-be69-4a14-96a6-9454c324a239)"><polygon points="41.37 65.4 65.4 45.23 65.4 45.6 41.81 65.4 41.37 65.4" fill="#1a2a5a"/></g><g clip-path="url(#e11f5947-be69-4a14-96a6-9454c324a239)"><polygon points="40.93 65.4 65.4 44.87 65.4 45.23 41.37 65.4 40.93 65.4" fill="#1a2a5a"/></g><g clip-path="url(#e11f5947-be69-4a14-96a6-9454c324a239)"><polygon points="40.5 65.4 65.4 44.5 65.4 44.87 40.93 65.4 40.5 65.4" fill="#1a2a5b"/></g><g clip-path="url(#e11f5947-be69-4a14-96a6-9454c324a239)"><polygon points="40.06 65.4 65.4 44.14 65.4 44.5 40.5 65.4 40.06 65.4" fill="#1a2b5c"/></g><g clip-path="url(#e11f5947-be69-4a14-96a6-9454c324a239)"><polygon points="39.62 65.4 65.4 43.76 65.4 44.14 40.06 65.4 39.62 65.4" fill="#1a2b5c"/></g><g clip-path="url(#e11f5947-be69-4a14-96a6-9454c324a239)"><polygon points="39.19 65.4 65.4 43.4 65.4 43.76 39.62 65.4 39.19 65.4" fill="#1b2c5d"/></g><g clip-path="url(#e11f5947-be69-4a14-96a6-9454c324a239)"><polygon points="38.75 65.4 65.4 43.03 65.4 43.4 39.19 65.4 38.75 65.4" fill="#1b2c5d"/></g><g clip-path="url(#e11f5947-be69-4a14-96a6-9454c324a239)"><polygon points="38.31 65.4 65.4 42.67 65.4 43.03 38.75 65.4 38.31 65.4" fill="#1b2c5e"/></g><g clip-path="url(#e11f5947-be69-4a14-96a6-9454c324a239)"><polygon points="37.87 65.4 65.4 42.31 65.4 42.67 38.31 65.4 37.87 65.4" fill="#1b2d5e"/></g><g clip-path="url(#e11f5947-be69-4a14-96a6-9454c324a239)"><polygon points="37.44 65.4 65.4 41.93 65.4 42.31 37.87 65.4 37.44 65.4" fill="#1b2d5f"/></g><g clip-path="url(#e11f5947-be69-4a14-96a6-9454c324a239)"><polygon points="37 65.4 65.4 41.56 65.4 41.93 37.44 65.4 37 65.4" fill="#1b2d60"/></g><g clip-path="url(#e11f5947-be69-4a14-96a6-9454c324a239)"><polygon points="36.56 65.4 65.4 41.2 65.4 41.56 37 65.4 36.56 65.4" fill="#1b2e60"/></g><g clip-path="url(#e11f5947-be69-4a14-96a6-9454c324a239)"><polygon points="36.13 65.4 65.4 40.84 65.4 41.2 36.56 65.4 36.13 65.4" fill="#1c2e61"/></g><g clip-path="url(#e11f5947-be69-4a14-96a6-9454c324a239)"><polygon points="35.69 65.4 65.4 40.47 65.4 40.84 36.13 65.4 35.69 65.4" fill="#1c2f61"/></g><g clip-path="url(#e11f5947-be69-4a14-96a6-9454c324a239)"><polygon points="35.25 65.4 65.4 40.1 65.4 40.47 35.69 65.4 35.25 65.4" fill="#1c2f62"/></g><g clip-path="url(#e11f5947-be69-4a14-96a6-9454c324a239)"><polygon points="34.81 65.4 65.4 39.73 65.4 40.1 35.25 65.4 34.81 65.4" fill="#1c2f62"/></g><g clip-path="url(#e11f5947-be69-4a14-96a6-9454c324a239)"><polygon points="34.38 65.4 65.4 39.37 65.4 39.73 34.81 65.4 34.38 65.4" fill="#1c3063"/></g><g clip-path="url(#e11f5947-be69-4a14-96a6-9454c324a239)"><polygon points="33.94 65.4 65.4 39 65.4 39.37 34.38 65.4 33.94 65.4" fill="#1c3064"/></g><g clip-path="url(#e11f5947-be69-4a14-96a6-9454c324a239)"><polygon points="33.5 65.4 65.4 38.64 65.4 39 33.94 65.4 33.5 65.4" fill="#1c3164"/></g><g clip-path="url(#e11f5947-be69-4a14-96a6-9454c324a239)"><polygon points="33.06 65.4 65.4 38.26 65.4 38.64 33.5 65.4 33.06 65.4" fill="#1c3165"/></g><g clip-path="url(#e11f5947-be69-4a14-96a6-9454c324a239)"><polygon points="32.63 65.4 65.4 37.9 65.4 38.26 33.06 65.4 32.63 65.4" fill="#1c3165"/></g><g clip-path="url(#e11f5947-be69-4a14-96a6-9454c324a239)"><polygon points="32.19 65.4 65.4 37.53 65.4 37.9 32.63 65.4 32.19 65.4" fill="#1d3266"/></g><g clip-path="url(#e11f5947-be69-4a14-96a6-9454c324a239)"><polygon points="31.75 65.4 65.4 37.17 65.4 37.53 32.19 65.4 31.75 65.4" fill="#1d3266"/></g><g clip-path="url(#e11f5947-be69-4a14-96a6-9454c324a239)"><polygon points="31.32 65.4 65.4 36.8 65.4 37.17 31.75 65.4 31.32 65.4" fill="#1d3267"/></g><g clip-path="url(#e11f5947-be69-4a14-96a6-9454c324a239)"><polygon points="30.88 65.4 65.4 36.43 65.4 36.8 31.32 65.4 30.88 65.4" fill="#1d3368"/></g><g clip-path="url(#e11f5947-be69-4a14-96a6-9454c324a239)"><polygon points="30.44 65.4 65.4 36.06 65.4 36.43 30.88 65.4 30.44 65.4" fill="#1d3368"/></g><g clip-path="url(#e11f5947-be69-4a14-96a6-9454c324a239)"><polygon points="30 65.4 65.4 35.7 65.4 36.06 30.44 65.4 30 65.4" fill="#1d3469"/></g><g clip-path="url(#e11f5947-be69-4a14-96a6-9454c324a239)"><polygon points="29.57 65.4 65.4 35.34 65.4 35.7 30 65.4 29.57 65.4" fill="#1d3469"/></g><g clip-path="url(#e11f5947-be69-4a14-96a6-9454c324a239)"><polygon points="29.13 65.4 65.4 34.97 65.4 35.34 29.57 65.4 29.13 65.4" fill="#1d346a"/></g><g clip-path="url(#e11f5947-be69-4a14-96a6-9454c324a239)"><polygon points="28.69 65.4 65.4 34.59 65.4 34.97 29.13 65.4 28.69 65.4" fill="#1d356a"/></g><g clip-path="url(#e11f5947-be69-4a14-96a6-9454c324a239)"><polygon points="28.26 65.4 65.4 34.23 65.4 34.59 28.69 65.4 28.26 65.4" fill="#1d356b"/></g><g clip-path="url(#e11f5947-be69-4a14-96a6-9454c324a239)"><polygon points="27.82 65.4 65.4 33.87 65.4 34.23 28.26 65.4 27.82 65.4" fill="#1d356c"/></g><g clip-path="url(#e11f5947-be69-4a14-96a6-9454c324a239)"><polygon points="27.38 65.4 65.4 33.5 65.4 33.87 27.82 65.4 27.38 65.4" fill="#1d366c"/></g><g clip-path="url(#e11f5947-be69-4a14-96a6-9454c324a239)"><polygon points="26.95 65.4 65.4 33.14 65.4 33.5 27.38 65.4 26.95 65.4" fill="#1d366d"/></g><g clip-path="url(#e11f5947-be69-4a14-96a6-9454c324a239)"><polygon points="26.51 65.4 65.4 32.77 65.4 33.14 26.95 65.4 26.51 65.4" fill="#1d366d"/></g><g clip-path="url(#e11f5947-be69-4a14-96a6-9454c324a239)"><polygon points="26.07 65.4 65.4 32.4 65.4 32.77 26.51 65.4 26.07 65.4" fill="#1d376e"/></g><g clip-path="url(#e11f5947-be69-4a14-96a6-9454c324a239)"><polygon points="25.63 65.4 65.4 32.03 65.4 32.4 26.07 65.4 25.63 65.4" fill="#1d376e"/></g><g clip-path="url(#e11f5947-be69-4a14-96a6-9454c324a239)"><polygon points="25.2 65.4 65.4 31.67 65.4 32.03 25.63 65.4 25.2 65.4" fill="#1e386f"/></g><g clip-path="url(#e11f5947-be69-4a14-96a6-9454c324a239)"><polygon points="24.76 65.4 65.4 31.3 65.4 31.67 25.2 65.4 24.76 65.4" fill="#1e3870"/></g><g clip-path="url(#e11f5947-be69-4a14-96a6-9454c324a239)"><polygon points="24.32 65.4 65.4 30.94 65.4 31.3 24.76 65.4 24.32 65.4" fill="#1e3870"/></g><g clip-path="url(#e11f5947-be69-4a14-96a6-9454c324a239)"><polygon points="23.89 65.4 65.4 30.56 65.4 30.94 24.32 65.4 23.89 65.4" fill="#1e3971"/></g><g clip-path="url(#e11f5947-be69-4a14-96a6-9454c324a239)"><polygon points="23.45 65.4 65.4 30.2 65.4 30.56 23.89 65.4 23.45 65.4" fill="#1e3971"/></g><g clip-path="url(#e11f5947-be69-4a14-96a6-9454c324a239)"><polygon points="23.01 65.4 65.4 29.84 65.4 30.2 23.45 65.4 23.01 65.4" fill="#1e3972"/></g><g clip-path="url(#e11f5947-be69-4a14-96a6-9454c324a239)"><polygon points="22.57 65.4 65.4 29.47 65.4 29.84 23.01 65.4 22.57 65.4" fill="#1e3a73"/></g><g clip-path="url(#e11f5947-be69-4a14-96a6-9454c324a239)"><polygon points="22.14 65.4 65.4 29.11 65.4 29.47 22.57 65.4 22.14 65.4" fill="#1e3a73"/></g><g clip-path="url(#e11f5947-be69-4a14-96a6-9454c324a239)"><polygon points="21.7 65.4 65.4 28.73 65.4 29.11 22.14 65.4 21.7 65.4" fill="#1e3a74"/></g><g clip-path="url(#e11f5947-be69-4a14-96a6-9454c324a239)"><polygon points="21.26 65.4 65.4 28.37 65.4 28.73 21.7 65.4 21.26 65.4" fill="#1e3b74"/></g><g clip-path="url(#e11f5947-be69-4a14-96a6-9454c324a239)"><polygon points="20.82 65.4 65.4 28 65.4 28.37 21.26 65.4 20.82 65.4" fill="#1e3b75"/></g><g clip-path="url(#e11f5947-be69-4a14-96a6-9454c324a239)"><polygon points="20.39 65.4 65.4 27.64 65.4 28 20.82 65.4 20.39 65.4" fill="#1e3b75"/></g><g clip-path="url(#e11f5947-be69-4a14-96a6-9454c324a239)"><polygon points="19.95 65.4 65.4 27.27 65.4 27.64 20.39 65.4 19.95 65.4" fill="#1e3c76"/></g><g clip-path="url(#e11f5947-be69-4a14-96a6-9454c324a239)"><polygon points="19.51 65.4 65.4 26.9 65.4 27.27 19.95 65.4 19.51 65.4" fill="#1e3c77"/></g><g clip-path="url(#e11f5947-be69-4a14-96a6-9454c324a239)"><polygon points="19.08 65.4 65.4 26.53 65.4 26.9 19.51 65.4 19.08 65.4" fill="#1e3d77"/></g><g clip-path="url(#e11f5947-be69-4a14-96a6-9454c324a239)"><polygon points="18.64 65.4 65.4 26.17 65.4 26.53 19.08 65.4 18.64 65.4" fill="#1e3d78"/></g><g clip-path="url(#e11f5947-be69-4a14-96a6-9454c324a239)"><polygon points="18.2 65.4 65.4 25.8 65.4 26.17 18.64 65.4 18.2 65.4" fill="#1e3d78"/></g><g clip-path="url(#e11f5947-be69-4a14-96a6-9454c324a239)"><polygon points="17.77 65.4 65.4 25.44 65.4 25.8 18.2 65.4 17.77 65.4" fill="#1e3e79"/></g><g clip-path="url(#e11f5947-be69-4a14-96a6-9454c324a239)"><polygon points="17.34 65.4 65.4 25.06 65.4 25.44 17.77 65.4 17.34 65.4" fill="#1e3e7a"/></g><g clip-path="url(#e11f5947-be69-4a14-96a6-9454c324a239)"><polygon points="16.9 65.4 65.4 24.7 65.4 25.06 17.34 65.4 16.9 65.4" fill="#1e3e7a"/></g><g clip-path="url(#e11f5947-be69-4a14-96a6-9454c324a239)"><polygon points="16.47 65.4 65.4 24.33 65.4 24.7 16.9 65.4 16.47 65.4" fill="#1e3f7b"/></g><g clip-path="url(#e11f5947-be69-4a14-96a6-9454c324a239)"><polygon points="16.03 65.4 65.4 23.97 65.4 24.33 16.47 65.4 16.03 65.4" fill="#1e3f7b"/></g><g clip-path="url(#e11f5947-be69-4a14-96a6-9454c324a239)"><polygon points="15.59 65.4 65.4 23.61 65.4 23.97 16.03 65.4 15.59 65.4" fill="#1e3f7c"/></g><g clip-path="url(#e11f5947-be69-4a14-96a6-9454c324a239)"><polygon points="15.15 65.4 65.4 23.23 65.4 23.61 15.59 65.4 15.15 65.4" fill="#1e407d"/></g><g clip-path="url(#e11f5947-be69-4a14-96a6-9454c324a239)"><polygon points="14.72 65.4 65.4 22.86 65.4 23.23 15.15 65.4 14.72 65.4" fill="#1e407d"/></g><g clip-path="url(#e11f5947-be69-4a14-96a6-9454c324a239)"><polygon points="14.28 65.4 65.4 22.5 65.4 22.86 14.72 65.4 14.28 65.4" fill="#1e417e"/></g><g clip-path="url(#e11f5947-be69-4a14-96a6-9454c324a239)"><polygon points="13.84 65.4 65.4 22.14 65.4 22.5 14.28 65.4 13.84 65.4" fill="#1e417e"/></g><g clip-path="url(#e11f5947-be69-4a14-96a6-9454c324a239)"><polygon points="13.41 65.4 65.4 21.77 65.4 22.14 13.84 65.4 13.41 65.4" fill="#1e417f"/></g><g clip-path="url(#e11f5947-be69-4a14-96a6-9454c324a239)"><polygon points="12.97 65.4 65.4 21.4 65.4 21.77 13.41 65.4 12.97 65.4" fill="#1d427f"/></g><g clip-path="url(#e11f5947-be69-4a14-96a6-9454c324a239)"><polygon points="12.53 65.4 65.4 21.03 65.4 21.4 12.97 65.4 12.53 65.4" fill="#1d4280"/></g><g clip-path="url(#e11f5947-be69-4a14-96a6-9454c324a239)"><polygon points="12.09 65.4 65.4 20.67 65.4 21.03 12.53 65.4 12.09 65.4" fill="#1d4281"/></g><g clip-path="url(#e11f5947-be69-4a14-96a6-9454c324a239)"><polygon points="11.66 65.4 65.4 20.3 65.4 20.67 12.09 65.4 11.66 65.4" fill="#1d4381"/></g><g clip-path="url(#e11f5947-be69-4a14-96a6-9454c324a239)"><polygon points="11.22 65.4 65.4 19.94 65.4 20.3 11.66 65.4 11.22 65.4" fill="#1d4382"/></g><g clip-path="url(#e11f5947-be69-4a14-96a6-9454c324a239)"><polygon points="10.78 65.4 65.4 19.56 65.4 19.94 11.22 65.4 10.78 65.4" fill="#1d4382"/></g><g clip-path="url(#e11f5947-be69-4a14-96a6-9454c324a239)"><polygon points="10.35 65.4 65.4 19.2 65.4 19.56 10.78 65.4 10.35 65.4" fill="#1d4483"/></g><g clip-path="url(#e11f5947-be69-4a14-96a6-9454c324a239)"><polygon points="5.55 65.4 65.4 15.18 65.4 19.2 10.35 65.4 5.55 65.4" fill="#1d4483"/></g><g clip-path="url(#e11f5947-be69-4a14-96a6-9454c324a239)"><polygon points="0.74 65.4 65.4 11.15 65.4 15.18 5.55 65.4 0.74 65.4" fill="#1e4382"/></g><g clip-path="url(#e11f5947-be69-4a14-96a6-9454c324a239)"><polygon points="0 62 65.4 7.13 65.4 11.15 0.74 65.4 0 65.4 0 62" fill="#1e4281"/></g><g clip-path="url(#e11f5947-be69-4a14-96a6-9454c324a239)"><polygon points="0 57.97 65.4 3.1 65.4 7.13 0 62 0 57.97" fill="#1f4280"/></g><g clip-path="url(#e11f5947-be69-4a14-96a6-9454c324a239)"><polygon points="0 53.95 64.3 0 65.4 0 65.4 3.1 0 57.97 0 53.95" fill="#1f417f"/></g><g clip-path="url(#e11f5947-be69-4a14-96a6-9454c324a239)"><polygon points="0 49.92 59.5 0 64.3 0 0 53.95 0 49.92" fill="#20407e"/></g><g clip-path="url(#e11f5947-be69-4a14-96a6-9454c324a239)"><polygon points="0 45.9 54.69 0 59.5 0 0 49.92 0 45.9" fill="#20407d"/></g><g clip-path="url(#e11f5947-be69-4a14-96a6-9454c324a239)"><polygon points="0 45.54 54.27 0 54.69 0 0 45.9 0 45.54" fill="#20407d"/></g><g clip-path="url(#e11f5947-be69-4a14-96a6-9454c324a239)"><polygon points="0 45.17 53.84 0 54.27 0 0 45.54 0 45.17" fill="#203f7c"/></g><g clip-path="url(#e11f5947-be69-4a14-96a6-9454c324a239)"><polygon points="0 44.82 53.4 0 53.84 0 0 45.17 0 44.82" fill="#203f7c"/></g><g clip-path="url(#e11f5947-be69-4a14-96a6-9454c324a239)"><polygon points="0 44.45 52.98 0 53.4 0 0 44.82 0 44.45" fill="#203f7b"/></g><g clip-path="url(#e11f5947-be69-4a14-96a6-9454c324a239)"><polygon points="0 44.09 52.54 0 52.98 0 0 44.45 0 44.09" fill="#203e7b"/></g><g clip-path="url(#e11f5947-be69-4a14-96a6-9454c324a239)"><polygon points="0 43.73 52.12 0 52.54 0 0 44.09 0 43.73" fill="#203e7a"/></g><g clip-path="url(#e11f5947-be69-4a14-96a6-9454c324a239)"><polygon points="0 43.37 51.69 0 52.12 0 0 43.73 0 43.37" fill="#203e79"/></g><g clip-path="url(#e11f5947-be69-4a14-96a6-9454c324a239)"><polygon points="0 43.01 51.26 0 51.69 0 0 43.37 0 43.01" fill="#203d79"/></g><g clip-path="url(#e11f5947-be69-4a14-96a6-9454c324a239)"><polygon points="0 42.65 50.83 0 51.26 0 0 43.01 0 42.65" fill="#203d78"/></g><g clip-path="url(#e11f5947-be69-4a14-96a6-9454c324a239)"><polygon points="0 42.29 50.39 0 50.83 0 0 42.65 0 42.29" fill="#203d78"/></g><g clip-path="url(#e11f5947-be69-4a14-96a6-9454c324a239)"><polygon points="0 41.93 49.97 0 50.39 0 0 42.29 0 41.93" fill="#203c77"/></g><g clip-path="url(#e11f5947-be69-4a14-96a6-9454c324a239)"><polygon points="0 41.56 49.54 0 49.97 0 0 41.93 0 41.56" fill="#203c77"/></g><g clip-path="url(#e11f5947-be69-4a14-96a6-9454c324a239)"><polygon points="0 41.2 49.11 0 49.54 0 0 41.56 0 41.2" fill="#203c76"/></g><g clip-path="url(#e11f5947-be69-4a14-96a6-9454c324a239)"><polygon points="0 40.85 48.68 0 49.11 0 0 41.2 0 40.85" fill="#203b76"/></g><g clip-path="url(#e11f5947-be69-4a14-96a6-9454c324a239)"><polygon points="0 40.48 48.24 0 48.68 0 0 40.85 0 40.48" fill="#203b75"/></g><g clip-path="url(#e11f5947-be69-4a14-96a6-9454c324a239)"><polygon points="0 40.12 47.82 0 48.24 0 0 40.48 0 40.12" fill="#203b74"/></g><g clip-path="url(#e11f5947-be69-4a14-96a6-9454c324a239)"><polygon points="0 39.77 47.39 0 47.82 0 0 40.12 0 39.77" fill="#203a74"/></g><g clip-path="url(#e11f5947-be69-4a14-96a6-9454c324a239)"><polygon points="0 39.4 46.96 0 47.39 0 0 39.77 0 39.4" fill="#203a73"/></g><g clip-path="url(#e11f5947-be69-4a14-96a6-9454c324a239)"><polygon points="0 39.04 46.53 0 46.96 0 0 39.4 0 39.04" fill="#203a73"/></g><g clip-path="url(#e11f5947-be69-4a14-96a6-9454c324a239)"><polygon points="0 38.69 46.09 0 46.53 0 0 39.04 0 38.69" fill="#203972"/></g><g clip-path="url(#e11f5947-be69-4a14-96a6-9454c324a239)"><polygon points="0 38.32 45.67 0 46.09 0 0 38.69 0 38.32" fill="#203972"/></g><g clip-path="url(#e11f5947-be69-4a14-96a6-9454c324a239)"><polygon points="0 37.96 45.24 0 45.67 0 0 38.32 0 37.96" fill="#203971"/></g><g clip-path="url(#e11f5947-be69-4a14-96a6-9454c324a239)"><polygon points="0 37.59 44.81 0 45.24 0 0 37.96 0 37.59" fill="#203871"/></g><g clip-path="url(#e11f5947-be69-4a14-96a6-9454c324a239)"><polygon points="0 37.24 44.38 0 44.81 0 0 37.59 0 37.24" fill="#1f3870"/></g><g clip-path="url(#e11f5947-be69-4a14-96a6-9454c324a239)"><polygon points="0 36.88 43.95 0 44.38 0 0 37.24 0 36.88" fill="#1f386f"/></g><g clip-path="url(#e11f5947-be69-4a14-96a6-9454c324a239)"><polygon points="0 36.51 43.52 0 43.95 0 0 36.88 0 36.51" fill="#1f376f"/></g><g clip-path="url(#e11f5947-be69-4a14-96a6-9454c324a239)"><polygon points="0 36.16 43.09 0 43.52 0 0 36.51 0 36.16" fill="#1f376e"/></g><g clip-path="url(#e11f5947-be69-4a14-96a6-9454c324a239)"><polygon points="0 35.8 42.66 0 43.09 0 0 36.16 0 35.8" fill="#1f366e"/></g><g clip-path="url(#e11f5947-be69-4a14-96a6-9454c324a239)"><polygon points="0 35.43 42.23 0 42.66 0 0 35.8 0 35.43" fill="#1f366d"/></g><g clip-path="url(#e11f5947-be69-4a14-96a6-9454c324a239)"><polygon points="0 35.07 41.8 0 42.23 0 0 35.43 0 35.07" fill="#1f366d"/></g><g clip-path="url(#e11f5947-be69-4a14-96a6-9454c324a239)"><polygon points="0 34.72 41.37 0 41.8 0 0 35.07 0 34.72" fill="#1f356c"/></g><g clip-path="url(#e11f5947-be69-4a14-96a6-9454c324a239)"><polygon points="0 34.35 40.95 0 41.37 0 0 34.72 0 34.35" fill="#1f356c"/></g><g clip-path="url(#e11f5947-be69-4a14-96a6-9454c324a239)"><polygon points="0 33.99 40.51 0 40.95 0 0 34.35 0 33.99" fill="#1f356b"/></g><g clip-path="url(#e11f5947-be69-4a14-96a6-9454c324a239)"><polygon points="0 33.64 40.08 0 40.51 0 0 33.99 0 33.64" fill="#1f346b"/></g><g clip-path="url(#e11f5947-be69-4a14-96a6-9454c324a239)"><polygon points="0 33.27 39.65 0 40.08 0 0 33.64 0 33.27" fill="#1f346a"/></g><g clip-path="url(#e11f5947-be69-4a14-96a6-9454c324a239)"><polygon points="0 32.91 39.22 0 39.65 0 0 33.27 0 32.91" fill="#1f3469"/></g><g clip-path="url(#e11f5947-be69-4a14-96a6-9454c324a239)"><polygon points="0 32.55 38.8 0 39.22 0 0 32.91 0 32.55" fill="#1f3369"/></g><g clip-path="url(#e11f5947-be69-4a14-96a6-9454c324a239)"><polygon points="0 32.19 38.36 0 38.8 0 0 32.55 0 32.19" fill="#1e3368"/></g><g clip-path="url(#e11f5947-be69-4a14-96a6-9454c324a239)"><polygon points="0 31.83 37.93 0 38.36 0 0 32.19 0 31.83" fill="#1e3368"/></g><g clip-path="url(#e11f5947-be69-4a14-96a6-9454c324a239)"><polygon points="0 31.46 37.5 0 37.93 0 0 31.83 0 31.46" fill="#1e3267"/></g><g clip-path="url(#e11f5947-be69-4a14-96a6-9454c324a239)"><polygon points="0 31.11 37.07 0 37.5 0 0 31.46 0 31.11" fill="#1e3267"/></g><g clip-path="url(#e11f5947-be69-4a14-96a6-9454c324a239)"><polygon points="0 30.75 36.63 0 37.07 0 0 31.11 0 30.75" fill="#1e3266"/></g><g clip-path="url(#e11f5947-be69-4a14-96a6-9454c324a239)"><polygon points="0 30.38 36.21 0 36.63 0 0 30.75 0 30.38" fill="#1e3166"/></g><g clip-path="url(#e11f5947-be69-4a14-96a6-9454c324a239)"><polygon points="0 30.03 35.78 0 36.21 0 0 30.38 0 30.03" fill="#1e3165"/></g><g clip-path="url(#e11f5947-be69-4a14-96a6-9454c324a239)"><polygon points="0 29.66 35.35 0 35.78 0 0 30.03 0 29.66" fill="#1e3165"/></g><g clip-path="url(#e11f5947-be69-4a14-96a6-9454c324a239)"><polygon points="0 29.3 34.92 0 35.35 0 0 29.66 0 29.3" fill="#1e3064"/></g><g clip-path="url(#e11f5947-be69-4a14-96a6-9454c324a239)"><polygon points="0 28.94 34.49 0 34.92 0 0 29.3 0 28.94" fill="#1e3063"/></g><g clip-path="url(#e11f5947-be69-4a14-96a6-9454c324a239)"><polygon points="0 28.58 34.06 0 34.49 0 0 28.94 0 28.58" fill="#1d2f63"/></g><g clip-path="url(#e11f5947-be69-4a14-96a6-9454c324a239)"><polygon points="0 28.22 33.64 0 34.06 0 0 28.58 0 28.22" fill="#1d2f62"/></g><g clip-path="url(#e11f5947-be69-4a14-96a6-9454c324a239)"><polygon points="0 27.86 33.2 0 33.64 0 0 28.22 0 27.86" fill="#1d2f62"/></g><g clip-path="url(#e11f5947-be69-4a14-96a6-9454c324a239)"><polygon points="0 27.5 32.77 0 33.2 0 0 27.86 0 27.5" fill="#1d2e61"/></g><g clip-path="url(#e11f5947-be69-4a14-96a6-9454c324a239)"><polygon points="0 27.14 32.34 0 32.77 0 0 27.5 0 27.14" fill="#1d2e61"/></g><g clip-path="url(#e11f5947-be69-4a14-96a6-9454c324a239)"><polygon points="0 26.77 31.91 0 32.34 0 0 27.14 0 26.77" fill="#1d2e60"/></g><g clip-path="url(#e11f5947-be69-4a14-96a6-9454c324a239)"><polygon points="0 26.42 31.49 0 31.91 0 0 26.77 0 26.42" fill="#1d2d60"/></g><g clip-path="url(#e11f5947-be69-4a14-96a6-9454c324a239)"><polygon points="0 26.06 31.05 0 31.49 0 0 26.42 0 26.06" fill="#1c2d5f"/></g><g clip-path="url(#e11f5947-be69-4a14-96a6-9454c324a239)"><polygon points="0 25.69 30.62 0 31.05 0 0 26.06 0 25.69" fill="#1c2d5e"/></g><g clip-path="url(#e11f5947-be69-4a14-96a6-9454c324a239)"><polygon points="0 25.33 30.19 0 30.62 0 0 25.69 0 25.33" fill="#1c2c5e"/></g><g clip-path="url(#e11f5947-be69-4a14-96a6-9454c324a239)"><polygon points="0 24.98 29.76 0 30.19 0 0 25.33 0 24.98" fill="#1c2c5d"/></g><g clip-path="url(#e11f5947-be69-4a14-96a6-9454c324a239)"><polygon points="0 24.61 29.34 0 29.76 0 0 24.98 0 24.61" fill="#1c2b5d"/></g><g clip-path="url(#e11f5947-be69-4a14-96a6-9454c324a239)"><polygon points="0 24.25 28.9 0 29.34 0 0 24.61 0 24.25" fill="#1c2b5c"/></g><g clip-path="url(#e11f5947-be69-4a14-96a6-9454c324a239)"><polygon points="0 23.9 28.48 0 28.9 0 0 24.25 0 23.9" fill="#1b2b5c"/></g><g clip-path="url(#e11f5947-be69-4a14-96a6-9454c324a239)"><polygon points="0 23.53 28.04 0 28.48 0 0 23.9 0 23.53" fill="#1b2a5b"/></g><g clip-path="url(#e11f5947-be69-4a14-96a6-9454c324a239)"><polygon points="0 23.17 27.61 0 28.04 0 0 23.53 0 23.17" fill="#1b2a5b"/></g><g clip-path="url(#e11f5947-be69-4a14-96a6-9454c324a239)"><polygon points="0 22.8 27.19 0 27.61 0 0 23.17 0 22.8" fill="#1b2a5a"/></g><g clip-path="url(#e11f5947-be69-4a14-96a6-9454c324a239)"><polygon points="0 22.45 26.75 0 27.19 0 0 22.8 0 22.45" fill="#1b2959"/></g><g clip-path="url(#e11f5947-be69-4a14-96a6-9454c324a239)"><polygon points="0 22.09 26.33 0 26.75 0 0 22.45 0 22.09" fill="#1b2959"/></g><g clip-path="url(#e11f5947-be69-4a14-96a6-9454c324a239)"><polygon points="0 21.72 25.89 0 26.33 0 0 22.09 0 21.72" fill="#1a2858"/></g><g clip-path="url(#e11f5947-be69-4a14-96a6-9454c324a239)"><polygon points="0 21.37 25.46 0 25.89 0 0 21.72 0 21.37" fill="#1a2858"/></g><g clip-path="url(#e11f5947-be69-4a14-96a6-9454c324a239)"><polygon points="0 21.01 25.04 0 25.46 0 0 21.37 0 21.01" fill="#1a2857"/></g><g clip-path="url(#e11f5947-be69-4a14-96a6-9454c324a239)"><polygon points="0 20.64 24.6 0 25.04 0 0 21.01 0 20.64" fill="#1a2757"/></g><g clip-path="url(#e11f5947-be69-4a14-96a6-9454c324a239)"><polygon points="0 20.29 24.18 0 24.6 0 0 20.64 0 20.29" fill="#1a2756"/></g><g clip-path="url(#e11f5947-be69-4a14-96a6-9454c324a239)"><polygon points="0 19.93 23.74 0 24.18 0 0 20.29 0 19.93" fill="#192756"/></g><g clip-path="url(#e11f5947-be69-4a14-96a6-9454c324a239)"><polygon points="0 19.56 23.31 0 23.74 0 0 19.93 0 19.56" fill="#192655"/></g><g clip-path="url(#e11f5947-be69-4a14-96a6-9454c324a239)"><polygon points="0 19.2 22.89 0 23.31 0 0 19.56 0 19.2" fill="#192655"/></g><g clip-path="url(#e11f5947-be69-4a14-96a6-9454c324a239)"><polygon points="0 18.85 22.45 0 22.89 0 0 19.2 0 18.85" fill="#192554"/></g><g clip-path="url(#e11f5947-be69-4a14-96a6-9454c324a239)"><polygon points="0 18.48 22.03 0 22.45 0 0 18.85 0 18.48" fill="#192554"/></g><g clip-path="url(#e11f5947-be69-4a14-96a6-9454c324a239)"><polygon points="0 18.12 21.59 0 22.03 0 0 18.48 0 18.12" fill="#192553"/></g><g clip-path="url(#e11f5947-be69-4a14-96a6-9454c324a239)"><polygon points="0 17.77 21.16 0 21.59 0 0 18.12 0 17.77" fill="#182452"/></g><g clip-path="url(#e11f5947-be69-4a14-96a6-9454c324a239)"><polygon points="0 17.4 20.74 0 21.16 0 0 17.77 0 17.4" fill="#182452"/></g><g clip-path="url(#e11f5947-be69-4a14-96a6-9454c324a239)"><polygon points="0 17.04 20.3 0 20.74 0 0 17.4 0 17.04" fill="#182451"/></g><g clip-path="url(#e11f5947-be69-4a14-96a6-9454c324a239)"><polygon points="0 16.67 19.88 0 20.3 0 0 17.04 0 16.67" fill="#182351"/></g><g clip-path="url(#e11f5947-be69-4a14-96a6-9454c324a239)"><polygon points="0 16.32 19.44 0 19.88 0 0 16.67 0 16.32" fill="#182350"/></g><g clip-path="url(#e11f5947-be69-4a14-96a6-9454c324a239)"><polygon points="0 15.96 19.02 0 19.44 0 0 16.32 0 15.96" fill="#172250"/></g><g clip-path="url(#e11f5947-be69-4a14-96a6-9454c324a239)"><polygon points="0 15.59 18.59 0 19.02 0 0 15.96 0 15.59" fill="#17224f"/></g><g clip-path="url(#e11f5947-be69-4a14-96a6-9454c324a239)"><polygon points="0 15.24 18.15 0 18.59 0 0 15.59 0 15.24" fill="#17224f"/></g><g clip-path="url(#e11f5947-be69-4a14-96a6-9454c324a239)"><polygon points="0 14.88 17.73 0 18.15 0 0 15.24 0 14.88" fill="#17214e"/></g><g clip-path="url(#e11f5947-be69-4a14-96a6-9454c324a239)"><polygon points="0 14.51 17.29 0 17.73 0 0 14.88 0 14.51" fill="#17214e"/></g><g clip-path="url(#e11f5947-be69-4a14-96a6-9454c324a239)"><polygon points="0 14.16 16.87 0 17.29 0 0 14.51 0 14.16" fill="#16204d"/></g><g clip-path="url(#e11f5947-be69-4a14-96a6-9454c324a239)"><polygon points="0 13.79 16.44 0 16.87 0 0 14.16 0 13.79" fill="#16204d"/></g><g clip-path="url(#e11f5947-be69-4a14-96a6-9454c324a239)"><polygon points="0 13.43 16 0 16.44 0 0 13.79 0 13.43" fill="#16204c"/></g><g clip-path="url(#e11f5947-be69-4a14-96a6-9454c324a239)"><polygon points="0 13.07 15.58 0 16 0 0 13.43 0 13.07" fill="#161f4b"/></g><g clip-path="url(#e11f5947-be69-4a14-96a6-9454c324a239)"><polygon points="0 12.71 15.14 0 15.58 0 0 13.07 0 12.71" fill="#151f4b"/></g><g clip-path="url(#e11f5947-be69-4a14-96a6-9454c324a239)"><polygon points="0 12.35 14.72 0 15.14 0 0 12.71 0 12.35" fill="#151e4a"/></g><g clip-path="url(#e11f5947-be69-4a14-96a6-9454c324a239)"><polygon points="0 11.98 14.29 0 14.72 0 0 12.35 0 11.98" fill="#151e4a"/></g><g clip-path="url(#e11f5947-be69-4a14-96a6-9454c324a239)"><polygon points="0 11.63 13.86 0 14.29 0 0 11.98 0 11.63" fill="#151e49"/></g><g clip-path="url(#e11f5947-be69-4a14-96a6-9454c324a239)"><polygon points="0 11.27 13.43 0 13.86 0 0 11.63 0 11.27" fill="#151d49"/></g><g clip-path="url(#e11f5947-be69-4a14-96a6-9454c324a239)"><polygon points="0 10.9 12.99 0 13.43 0 0 11.27 0 10.9" fill="#141d48"/></g><g clip-path="url(#e11f5947-be69-4a14-96a6-9454c324a239)"><polygon points="0 10.54 12.57 0 12.99 0 0 10.9 0 10.54" fill="#141c48"/></g><g clip-path="url(#e11f5947-be69-4a14-96a6-9454c324a239)"><polygon points="0 10.19 12.14 0 12.57 0 0 10.54 0 10.19" fill="#141c47"/></g><g clip-path="url(#e11f5947-be69-4a14-96a6-9454c324a239)"><polygon points="0 9.82 11.71 0 12.14 0 0 10.19 0 9.82" fill="#141c47"/></g><g clip-path="url(#e11f5947-be69-4a14-96a6-9454c324a239)"><polygon points="0 9.46 11.28 0 11.71 0 0 9.82 0 9.46" fill="#131b46"/></g><g clip-path="url(#e11f5947-be69-4a14-96a6-9454c324a239)"><polygon points="0 9.11 10.84 0 11.28 0 0 9.46 0 9.11" fill="#131b46"/></g><g clip-path="url(#e11f5947-be69-4a14-96a6-9454c324a239)"><polygon points="0 8.74 10.42 0 10.84 0 0 9.11 0 8.74" fill="#131a45"/></g><g clip-path="url(#e11f5947-be69-4a14-96a6-9454c324a239)"><polygon points="0 8.38 9.99 0 10.42 0 0 8.74 0 8.38" fill="#131a45"/></g><g clip-path="url(#e11f5947-be69-4a14-96a6-9454c324a239)"><polygon points="0 8.03 9.56 0 9.99 0 0 8.38 0 8.03" fill="#121944"/></g><g clip-path="url(#e11f5947-be69-4a14-96a6-9454c324a239)"><polygon points="0 7.66 9.13 0 9.56 0 0 8.03 0 7.66" fill="#121944"/></g><g clip-path="url(#e11f5947-be69-4a14-96a6-9454c324a239)"><polygon points="0 7.3 8.69 0 9.13 0 0 7.66 0 7.3" fill="#121943"/></g><g clip-path="url(#e11f5947-be69-4a14-96a6-9454c324a239)"><polygon points="0 6.93 8.27 0 8.69 0 0 7.3 0 6.93" fill="#121843"/></g><g clip-path="url(#e11f5947-be69-4a14-96a6-9454c324a239)"><polygon points="0 6.58 7.84 0 8.27 0 0 6.93 0 6.58" fill="#111842"/></g><g clip-path="url(#e11f5947-be69-4a14-96a6-9454c324a239)"><polygon points="0 6.22 7.41 0 7.84 0 0 6.58 0 6.22" fill="#111742"/></g><g clip-path="url(#e11f5947-be69-4a14-96a6-9454c324a239)"><polygon points="0 5.85 6.98 0 7.41 0 0 6.22 0 5.85" fill="#111741"/></g><g clip-path="url(#e11f5947-be69-4a14-96a6-9454c324a239)"><polygon points="0 5.5 6.54 0 6.98 0 0 5.85 0 5.5" fill="#101641"/></g><g clip-path="url(#e11f5947-be69-4a14-96a6-9454c324a239)"><polygon points="0 5.14 6.12 0 6.54 0 0 5.5 0 5.14" fill="#101640"/></g><g clip-path="url(#e11f5947-be69-4a14-96a6-9454c324a239)"><polygon points="0 4.77 5.7 0 6.12 0 0 5.14 0 4.77" fill="#101640"/></g><g clip-path="url(#e11f5947-be69-4a14-96a6-9454c324a239)"><polygon points="0 4.41 5.26 0 5.7 0 0 4.77 0 4.41" fill="#10153f"/></g><g clip-path="url(#e11f5947-be69-4a14-96a6-9454c324a239)"><polygon points="0 4.06 4.83 0 5.26 0 0 4.41 0 4.06" fill="#0f153f"/></g><g clip-path="url(#e11f5947-be69-4a14-96a6-9454c324a239)"><polygon points="0 3.69 4.4 0 4.83 0 0 4.06 0 3.69" fill="#0f143e"/></g><g clip-path="url(#e11f5947-be69-4a14-96a6-9454c324a239)"><polygon points="0 3.33 3.97 0 4.4 0 0 3.69 0 3.33" fill="#0f143e"/></g><g clip-path="url(#e11f5947-be69-4a14-96a6-9454c324a239)"><polygon points="0 2.98 3.55 0 3.97 0 0 3.33 0 2.98" fill="#0e133d"/></g><g clip-path="url(#e11f5947-be69-4a14-96a6-9454c324a239)"><polygon points="3.55 0 0 2.98 0 0 3.55 0" fill="#0e133d"/></g><rect x="65.4" y="65.4" width="19.6" height="19.6" fill="#d8af5f"/><path d="M10.71,20.5V11.86H8.44V20.5Zm15.08.08V18.47a4.46,4.46,0,0,1-.81,0,.94.94,0,0,1-.54-.24,1,1,0,0,1-.24-.51,5,5,0,0,1-.05-.84v-3H25.8v-2H24.15V8.49H21.87v8.35a7.54,7.54,0,0,0,.18,1.79,2.5,2.5,0,0,0,.61,1.14,2.34,2.34,0,0,0,1.1.62,6.64,6.64,0,0,0,1.74.18Zm13-.08V7.82H36.55V20.5ZM19.67,12.7a3.44,3.44,0,0,0-2.65-1,3.36,3.36,0,0,0-1.49.33,3.26,3.26,0,0,0-1.13.92l-.13.16V11.85H12v8.64h2.26V16a2.64,2.64,0,0,1,.6-1.8,2,2,0,0,1,1.44-.62,1.88,1.88,0,0,1,1.5.6,2.56,2.56,0,0,1,.49,1.65h0v4.57h2.3v-4.9A4,4,0,0,0,19.67,12.7Zm15.71,3.46A4.48,4.48,0,0,0,34.15,13a4.2,4.2,0,0,0-1.41-1,4.67,4.67,0,0,0-1.81-.34,4.5,4.5,0,0,0-1.76.36,4.52,4.52,0,0,0-2.38,2.38,4.14,4.14,0,0,0-.36,1.76A4.67,4.67,0,0,0,26.76,18a4.34,4.34,0,0,0,2.38,2.38,4.71,4.71,0,0,0,1.86.36A4.86,4.86,0,0,0,34.84,19L33.2,17.74a3,3,0,0,1-2.19,1,2.53,2.53,0,0,1-1.56-.45,2.18,2.18,0,0,1-.82-1.2l0-.07H35.4l0-.82Zm-6.77-.79a2.1,2.1,0,0,1,2.28-1.73,2.11,2.11,0,0,1,2.3,1.73Z" fill="#fff"/><path d="M41.43,19.37a1.16,1.16,0,0,0-.18-.27.91.91,0,0,0-.27-.18.75.75,0,0,0-.33-.07.71.71,0,0,0-.32.07,1,1,0,0,0-.27.18.91.91,0,0,0-.18.27.76.76,0,0,0-.08.33.72.72,0,0,0,.08.32.8.8,0,0,0,.18.27.71.71,0,0,0,.27.18.69.69,0,0,0,.32.08.73.73,0,0,0,.33-.08.8.8,0,0,0,.27-.18.91.91,0,0,0,.18-.27.71.71,0,0,0,.07-.32A.78.78,0,0,0,41.43,19.37ZM41.3,20a.72.72,0,0,1-.37.37.75.75,0,0,1-.26.05.76.76,0,0,1-.27-.05A.72.72,0,0,1,40,20a.75.75,0,0,1,0-.26.77.77,0,0,1,0-.27.72.72,0,0,1,.37-.37.77.77,0,0,1,.27,0,.75.75,0,0,1,.26,0,.72.72,0,0,1,.37.37.76.76,0,0,1,.05.27A.58.58,0,0,1,41.3,20Zm-.48-.19A.27.27,0,0,0,41,19.7a.26.26,0,0,0,.08-.19A.27.27,0,0,0,41,19.3a.37.37,0,0,0-.25-.08h-.38v1h.18v-.39h.13l.25.39h.18Zm-.09-.15h-.22v-.26h.29s.05,0,.05.05,0,0,0,.07a.35.35,0,0,1,0,.07l-.05.05Z" fill="#fff"/><path d="M16.26,40.27l3.25-6h4.12l-5.05,8.61,5.18,8.75H19.6l-3.34-6.08-3.34,6.08H8.76l5.18-8.75-5-8.61H13Z" fill="#fff"/><path d="M36,44.12H29.13v4.65h8.06v2.87H25.56V34.28H37.17v2.9h-8v4.14H36Z" fill="#fff"/><path d="M53.55,43.35a10.34,10.34,0,0,1-.91,4.49,6.78,6.78,0,0,1-2.6,3,7.72,7.72,0,0,1-7.72,0,6.9,6.9,0,0,1-2.63-3,10.38,10.38,0,0,1-.94-4.43v-.87a10.35,10.35,0,0,1,.92-4.51,6.83,6.83,0,0,1,2.61-3,7.62,7.62,0,0,1,7.72,0,6.85,6.85,0,0,1,2.62,3,10.48,10.48,0,0,1,.92,4.5v.79Zm-3.63-.79a7.4,7.4,0,0,0-1-4.15,3.47,3.47,0,0,0-5.58,0,7.21,7.21,0,0,0-1,4.11v.85a7.46,7.46,0,0,0,1,4.13,3.43,3.43,0,0,0,5.59.06,7.35,7.35,0,0,0,1-4.12v-.85Z" fill="#fff"/><path d="M70.26,51.63H66.68l-7-11.41V51.63H56.14V34.28h3.58l7,11.44V34.28h3.56V51.63Z" fill="#fff"/><path d="M17.66,80a3.31,3.31,0,0,1-1.56,1.19,6.13,6.13,0,0,1-2.32.39A4.52,4.52,0,0,1,11.41,81a4.11,4.11,0,0,1-1.6-1.79,6.22,6.22,0,0,1-.58-2.68v-1a5.77,5.77,0,0,1,1.15-3.82,4,4,0,0,1,3.24-1.36,4.17,4.17,0,0,1,2.76.87,3.88,3.88,0,0,1,1.28,2.48H16.21a2.38,2.38,0,0,0-2.59-2.17,2.55,2.55,0,0,0-2.19,1,5,5,0,0,0-.74,3v.9a4.67,4.67,0,0,0,.83,2.92,2.72,2.72,0,0,0,2.27,1.08,5.05,5.05,0,0,0,1.42-.18,2.27,2.27,0,0,0,1-.6V77.19H13.7V76h4Z" fill="#fff"/><path d="M28.46,76.35a7,7,0,0,1-.53,2.81,4,4,0,0,1-3.84,2.45A4.05,4.05,0,0,1,21.81,81a4.28,4.28,0,0,1-1.56-1.81,6.63,6.63,0,0,1-.57-2.72v-.79a6.76,6.76,0,0,1,.55-2.78,4.09,4.09,0,0,1,3.85-2.49A4.29,4.29,0,0,1,26.4,71a4.12,4.12,0,0,1,1.54,1.84,6.6,6.6,0,0,1,.54,2.8v.69ZM27,75.65a4.84,4.84,0,0,0-.78-3,2.58,2.58,0,0,0-2.18-1,2.55,2.55,0,0,0-2.15,1,4.77,4.77,0,0,0-.8,2.89v.8a4.94,4.94,0,0,0,.79,3,2.76,2.76,0,0,0,4.33.06A4.86,4.86,0,0,0,27,76.46Z" fill="#fff"/><path d="M32.07,80.29h5.17v1.18H30.61V70.54h1.45v9.75Z" fill="#fff"/><path d="M38.88,81.45V70.53H42a4.91,4.91,0,0,1,2.52.63A4.23,4.23,0,0,1,46.18,73a6,6,0,0,1,.61,2.68v.69a5.85,5.85,0,0,1-.6,2.71,4.18,4.18,0,0,1-1.7,1.78,5.2,5.2,0,0,1-2.57.63h-3Zm1.45-9.73v8.57h1.51a3.28,3.28,0,0,0,2.59-1,4.34,4.34,0,0,0,.92-3v-.65a4.34,4.34,0,0,0-.87-2.89,3.1,3.1,0,0,0-2.48-1H40.33Z" fill="#fff"/></svg>