<svg id="b4b52c04-8e51-4e84-8750-b6db900d0331" data-name="Layer 1" xmlns="http://www.w3.org/2000/svg" xmlns:xlink="http://www.w3.org/1999/xlink" width="85" height="85" viewBox="0 0 85 85"><defs><linearGradient id="e4a4fb04-8018-4a94-b756-660339179dd7" x1="62.31" y1="67.99" x2="4.55" y2="-0.85" gradientUnits="userSpaceOnUse"><stop offset="0" stop-color="#0e133d"/><stop offset="0.39" stop-color="#1d4482"/><stop offset="0.63" stop-color="#20407d"/><stop offset="1" stop-color="#0e133d"/></linearGradient></defs><rect width="85" height="85" fill="#1a4685"/><rect width="65.4" height="65.4" fill="url(#e4a4fb04-8018-4a94-b756-660339179dd7)"/><rect x="65.4" y="65.4" width="19.6" height="19.6" fill="#131844"/><path d="M16.26,40.26l3.25-6h4.11l-5.05,8.6,5.18,8.75H19.59l-3.33-6.08-3.34,6.08H8.76l5.18-8.75-5-8.6H13Z" transform="translate(0)" fill="#fff"/><path d="M36,44.11H29.13v4.65h8.06v2.87H25.55V34.28H37.17v2.89h-8v4.14H36Z" transform="translate(0)" fill="#fff"/><path d="M53.54,43.35a10.49,10.49,0,0,1-.9,4.49,6.87,6.87,0,0,1-2.59,3,7.68,7.68,0,0,1-7.72,0,6.93,6.93,0,0,1-2.63-3,10.2,10.2,0,0,1-.94-4.43v-.85a10.4,10.4,0,0,1,.93-4.52,6.82,6.82,0,0,1,2.61-3,7.66,7.66,0,0,1,7.71,0,7,7,0,0,1,2.61,3,10.34,10.34,0,0,1,.92,4.5Zm-3.62-.79a7.33,7.33,0,0,0-1-4.15,3.45,3.45,0,0,0-5.56,0,7.07,7.07,0,0,0-1,4.1v.85a7.38,7.38,0,0,0,1,4.12,3.19,3.19,0,0,0,2.82,1.47,3.14,3.14,0,0,0,2.76-1.41,7.33,7.33,0,0,0,1-4.12Z" transform="translate(0)" fill="#fff"/><path d="M70.26,51.63H66.68l-7-11.42V51.63H56.14V34.28h3.58l7,11.44V34.28h3.57Z" transform="translate(0)" fill="#fff"/><path d="M10.71,20.5V11.86H8.44V20.5Zm15.09.08V18.47a4.44,4.44,0,0,1-.82-.06.83.83,0,0,1-.78-.75,6,6,0,0,1-.05-.83v-3H25.8V11.86H24.15V8.49H21.87v8.35a7.54,7.54,0,0,0,.18,1.79,2.41,2.41,0,0,0,.61,1.14,2.32,2.32,0,0,0,1.11.62,6.52,6.52,0,0,0,1.73.19Zm13-.08V7.82H36.56V20.5ZM19.68,12.7a3.44,3.44,0,0,0-2.65-1,3.33,3.33,0,0,0-1.49.33,3.17,3.17,0,0,0-1.13.92l-.13.17V11.86H12V20.5H14.3V16.06a2.59,2.59,0,0,1,.6-1.79,2,2,0,0,1,1.44-.62,1.86,1.86,0,0,1,1.49.6,2.5,2.5,0,0,1,.5,1.65h0v0h0v4.57h2.29v-4.9A4.09,4.09,0,0,0,19.68,12.7Zm15.7,3.46a4.85,4.85,0,0,0-.32-1.75A4.51,4.51,0,0,0,34.14,13a4.16,4.16,0,0,0-1.4-1,4.67,4.67,0,0,0-1.81-.34,4.46,4.46,0,0,0-1.76.35,4.58,4.58,0,0,0-1.43,1,4.53,4.53,0,0,0-.95,1.43,4.32,4.32,0,0,0-.35,1.76,4.71,4.71,0,0,0,.33,1.76,4.43,4.43,0,0,0,.93,1.42,4.28,4.28,0,0,0,1.44,1,4.73,4.73,0,0,0,1.85.36A4.92,4.92,0,0,0,34.84,19L33.2,17.73a3,3,0,0,1-2.19,1,2.56,2.56,0,0,1-1.57-.45,2.23,2.23,0,0,1-.82-1.2l0-.08h6.78v-.81Zm-6.77-.79a2.11,2.11,0,0,1,2.29-1.74,2.11,2.11,0,0,1,2.3,1.73Z" transform="translate(0)" fill="#fff"/><path d="M41.43,19.37a.88.88,0,0,0-.44-.44.72.72,0,0,0-.33-.07.71.71,0,0,0-.32.07.88.88,0,0,0-.44.44.71.71,0,0,0-.07.32.72.72,0,0,0,.07.33.88.88,0,0,0,.44.44.71.71,0,0,0,.32.07.72.72,0,0,0,.33-.07.88.88,0,0,0,.44-.44.72.72,0,0,0,.07-.33A.71.71,0,0,0,41.43,19.37Zm-.13.6a.86.86,0,0,1-.15.22.64.64,0,0,1-.22.14.63.63,0,0,1-.27.06.67.67,0,0,1-.28-.06.7.7,0,0,1-.42-.64.66.66,0,0,1,.06-.27.64.64,0,0,1,.14-.22.86.86,0,0,1,.22-.15.82.82,0,0,1,.28-.05.69.69,0,0,1,.64.42.81.81,0,0,1,.05.27A.64.64,0,0,1,41.3,20Zm-.48-.21a.26.26,0,0,0,.16-.07.29.29,0,0,0,.07-.19.28.28,0,0,0-.09-.22.36.36,0,0,0-.25-.07h-.38v1h.18v-.39h.13l.24.39h.19Zm-.1-.13h-.21v-.28h.21l.08,0a.11.11,0,0,1,.05,0,.17.17,0,0,1,0,.16l-.05,0Z" transform="translate(0)" fill="#fff"/></svg>